<svg width="233" height="185" viewBox="0 0 233 185" fill="none" xmlns="http://www.w3.org/2000/svg">
<path d="M161.224 75.1283C167.025 74.6273 172.919 74.1263 178.69 74.819C184.461 75.5117 190.175 77.5837 193.305 81.1957C195.934 84.2325 196.447 87.9992 196.892 91.5555L200.715 122.264C201.042 124.868 201.333 127.571 200.183 130.045C197.635 135.456 188.252 138.011 180.774 136.322C177.454 135.588 174.338 134.128 171.648 132.047C168.959 129.966 166.763 127.316 165.219 124.286C162.553 118.905 162.213 113.079 161.904 107.364L160.203 76.2477L160.958 75.7529" fill="#263238"/>
<path d="M0 128.189L1.79982 134.516L173.668 184.429L232.783 145.414V140.095L0 128.189Z" fill="#263238"/>
<path d="M61.6517 99.5527L232.783 140.095L173.668 178.671L0 128.189L61.6517 99.5527Z" fill="#455A64"/>
<path d="M151.939 134.362L119.209 150.183L59.2021 133.817L88.6611 117.724L151.939 134.362Z" fill="#263238"/>
<path d="M115.851 133.694L124.541 136.563L132.587 132.191L119.197 127.892L111.379 131.95L115.851 133.694Z" fill="#455A64"/>
<path d="M51.5645 89.632C51.8366 90.7206 59.2029 133.817 59.2029 133.817L119.197 150.183L111.299 104.08L51.5645 89.632Z" fill="#263238"/>
<path d="M114.843 124.732C114.929 124.732 115.981 130.403 117.187 137.429C118.393 144.456 119.302 150.17 119.209 150.183C119.116 150.195 118.077 144.511 116.871 137.485C115.665 130.459 114.756 124.744 114.843 124.732Z" fill="#455A64"/>
<path d="M86.997 118.769C87.7269 120.656 86.997 122.691 85.3766 123.321C83.7561 123.952 81.8511 122.932 81.1213 121.045C80.3915 119.159 81.1213 117.124 82.7356 116.493C84.3499 115.862 86.2672 116.883 86.997 118.769Z" fill="#455A64"/>
<path d="M111.298 104.08C113.97 100.988 115.522 79.9587 115.522 79.9587L135.314 82.1853C135.314 82.1853 132.463 112.993 123.42 116.691L114.372 120.402" fill="#FFBE9D"/>
<path d="M176.32 110.679C176.32 110.679 185.078 120.495 184.553 128.671L169.01 124.961L175.003 110.655" fill="#511AFF"/>
<path d="M188.808 83.212C188.425 66.024 181.634 57.6125 181.356 56.5239C178.842 53.7789 175.783 51.5879 172.376 50.0906C168.968 48.5934 165.286 47.8227 161.564 47.8278L143.114 48.1247C138.375 48.6897 133.763 50.0422 129.47 52.1264L129.012 52.2563V52.3491C123.792 55.0766 118.189 59.3195 117.304 66.4755L115.071 80.4102L127.899 81.0287C126.594 85.6922 125.153 86.2921 126.662 90.8937L131.548 99.0022C131.548 105.466 131.115 101.55 129.13 115.572L178.684 127.323C181.56 124.49 179.37 116.809 171.701 102.849C170.557 100.759 176.5 79.7299 176.5 79.7299L187.571 83.5707" fill="#511AFF"/>
<path d="M130.793 75.6973C130.67 76.0022 130.521 76.296 130.347 76.5755C130.038 77.1322 129.593 77.9239 129.067 78.9196C128.053 80.905 126.637 83.781 126.5 87.2137C126.42 88.8147 126.71 90.4126 127.348 91.8833C127.9 93.0745 128.605 94.1889 129.444 95.1985C130.156 96.0705 130.774 96.7385 131.195 97.2147C131.423 97.4453 131.63 97.6958 131.813 97.9631C131.559 97.7532 131.321 97.5236 131.102 97.2766C130.657 96.8313 130.007 96.1819 129.247 95.316C128.365 94.3121 127.628 93.1901 127.057 91.9823C126.38 90.4745 126.07 88.8274 126.154 87.1766C126.228 85.5399 126.564 83.9257 127.15 82.3956C127.622 81.1524 128.189 79.9469 128.845 78.7897C129.395 77.8002 129.877 77.0209 130.211 76.489C130.384 76.21 130.578 75.9452 130.793 75.6973Z" fill="#263238"/>
<path d="M187.008 68.3433L186.866 68.467C186.767 68.5413 186.625 68.665 186.427 68.8072C185.832 69.2064 185.185 69.5207 184.503 69.7411C182.741 70.3596 179.92 70.4524 176.729 69.4876C175.133 69.0175 173.445 68.3248 171.632 67.6321C169.728 66.8379 167.721 66.3193 165.67 66.092C163.4 65.9168 161.118 66.1471 158.929 66.7724C156.569 67.4452 154.246 68.2421 151.97 69.1598C149.683 70.0851 147.336 70.8538 144.944 71.4606C142.699 72.0199 140.368 72.1541 138.073 71.8564C136.022 71.4864 134.026 70.8631 132.129 70.0009C130.335 69.234 128.684 68.4918 127.113 67.9784C125.713 67.5081 124.258 67.2232 122.784 67.1311C121.668 67.0694 120.549 67.1821 119.468 67.4651C118.549 67.7346 117.68 68.1525 116.896 68.7021C116.896 68.7021 116.939 68.6588 117.038 68.5784C117.137 68.498 117.285 68.3866 117.489 68.2506C118.094 67.8703 118.747 67.5729 119.431 67.3661C120.524 67.0532 121.66 66.9195 122.796 66.9703C124.294 67.0402 125.775 67.3128 127.2 67.7805C128.789 68.2815 130.453 69.0175 132.247 69.7721C134.127 70.6276 136.104 71.2507 138.135 71.6276C140.394 71.9115 142.687 71.771 144.895 71.2132C147.272 70.6083 149.605 69.8417 151.878 68.9185C154.162 67.9961 156.495 67.1991 158.867 66.5311C161.093 65.9 163.413 65.6717 165.72 65.857C167.793 66.0938 169.822 66.627 171.744 67.4403C173.562 68.1454 175.232 68.8443 176.809 69.3267C179.964 70.304 182.734 70.2359 184.485 69.6793C185.393 69.3746 186.246 68.9233 187.008 68.3433Z" fill="#263238"/>
<path d="M171.795 99.0702C171.669 99.1368 171.536 99.1886 171.399 99.2249L170.236 99.596C168.804 100.05 167.34 100.399 165.857 100.641C164.835 100.802 163.799 100.865 162.765 100.827C161.567 100.764 160.381 100.556 159.233 100.208C156.802 99.5032 154.341 98.2105 151.65 97.1838C150.337 96.6992 148.989 96.3126 147.618 96.0272C146.337 95.7816 145.041 95.6184 143.74 95.5386C141.53 95.4285 139.315 95.58 137.14 95.9901C135.667 96.2669 134.218 96.6662 132.811 97.1838C132.31 97.3446 131.933 97.524 131.673 97.6168C131.543 97.6778 131.406 97.7235 131.265 97.7528C131.389 97.68 131.517 97.6139 131.648 97.5549C131.902 97.4436 132.267 97.2519 132.768 97.0663C134.167 96.499 135.616 96.0642 137.097 95.7675C139.285 95.3198 141.521 95.1432 143.752 95.2417C145.07 95.314 146.382 95.4731 147.68 95.718C149.068 96.0038 150.432 96.3945 151.762 96.8869C154.483 97.9198 156.926 99.2125 159.32 99.9238C160.444 100.265 161.604 100.472 162.777 100.542C163.81 100.593 164.846 100.545 165.87 100.4C167.345 100.178 168.806 99.8641 170.242 99.4599L171.424 99.1444C171.544 99.1067 171.669 99.0819 171.795 99.0702Z" fill="#263238"/>
<path d="M149.323 117.217C149.046 117.224 148.769 117.195 148.5 117.13C147.756 117.002 147.021 116.828 146.298 116.611C144.443 116.104 142.031 115.052 139.26 114.236C136.912 113.48 134.409 113.344 131.993 113.84C131.01 114.105 130.071 114.509 129.203 115.04C129.203 115.04 129.246 114.978 129.358 114.891C129.515 114.759 129.683 114.639 129.859 114.533C130.5 114.123 131.201 113.814 131.937 113.617C133.792 113.067 136.538 113.104 139.359 113.927C142.179 114.749 144.56 115.831 146.373 116.401C147.276 116.691 148.018 116.895 148.531 117.019C148.8 117.061 149.065 117.127 149.323 117.217Z" fill="#263238"/>
<g opacity="0.1">
<path opacity="0.1" d="M172.196 79.4144C172.196 79.4144 164.119 97.2209 171.163 108.861L174.466 107.624L171.701 102.8C171.514 102.068 171.482 101.305 171.609 100.561C172.017 98.025 172.802 93.8872 173.854 89.7186L172.196 79.4144Z" fill="black"/>
</g>
<path d="M158.712 15.1403C162.695 18.6163 164.47 24.0838 164.6 29.3657C164.73 34.6477 164.266 40.6409 164.39 46.1517L172.467 45.9909C177.805 46.1517 183.854 45.5889 188.963 45.193C189.817 45.2012 190.658 44.9881 191.406 44.5745C192.581 43.7767 192.847 42.1871 193.008 40.777C193.261 38.5566 193.502 36.262 192.865 34.122C192.228 31.982 190.459 30.009 188.233 29.8481C187.447 29.7925 186.625 29.9595 185.895 29.6626C185.481 29.4524 185.122 29.1473 184.848 28.7722C184.574 28.3971 184.392 27.9626 184.318 27.504C184.114 26.601 184.144 25.6486 184.008 24.7456C183.785 23.3794 183.198 22.0987 182.309 21.0376C181.42 19.9766 180.261 19.1744 178.955 18.7152C177.298 18.1524 175.3 18.0967 174.211 16.7113C172.888 15.0475 173.754 12.6416 173.828 10.5263C173.876 9.05572 173.503 7.60202 172.752 6.3365C172.001 5.07098 170.905 4.04638 169.591 3.38342C168.278 2.72046 166.802 2.44675 165.338 2.59456C163.874 2.74236 162.483 3.30551 161.328 4.21767" fill="#263238"/>
<path d="M152.465 57.9464C150.031 57.9407 147.692 56.9962 145.936 55.3095C144.181 53.6229 143.143 51.3241 143.04 48.8917C142.866 44.8219 142.724 40.9625 142.724 40.9625C142.724 40.9625 134.937 40.2389 134.381 32.5633C133.824 24.8878 134.059 7.1679 134.059 7.1679C138.31 5.02062 143.057 4.04728 147.809 4.34847C152.562 4.64966 157.148 6.21444 161.094 8.88113L162.287 9.69136L161.935 48.57C161.912 51.0658 160.904 53.4515 159.13 55.2077C157.357 56.9638 154.961 57.9482 152.465 57.9464Z" fill="#FFBE9D"/>
<path d="M137.474 21.7273C137.63 21.5707 137.737 21.3713 137.78 21.1541C137.823 20.937 137.801 20.7119 137.716 20.5073C137.631 20.3028 137.488 20.128 137.304 20.005C137.12 19.882 136.903 19.8163 136.682 19.8163C136.461 19.8163 136.244 19.882 136.06 20.005C135.876 20.128 135.732 20.3028 135.648 20.5073C135.563 20.7119 135.541 20.937 135.584 21.1541C135.627 21.3713 135.734 21.5707 135.89 21.7273C135.994 21.832 136.117 21.9152 136.253 21.9719C136.389 22.0286 136.535 22.0579 136.682 22.0579C136.829 22.0579 136.975 22.0286 137.111 21.9719C137.247 21.9152 137.37 21.832 137.474 21.7273Z" fill="#263238"/>
<path d="M134.715 19.377C134.845 19.5069 135.562 18.876 136.62 18.808C137.677 18.74 138.475 19.2348 138.587 19.0925C138.698 18.9502 138.506 18.7956 138.154 18.5606C137.68 18.2659 137.126 18.1293 136.57 18.1704C136.014 18.2116 135.486 18.4283 135.061 18.7894C134.752 19.074 134.653 19.3461 134.715 19.377Z" fill="#263238"/>
<path d="M146.955 20.0326C146.774 20.1598 146.634 20.338 146.554 20.5445C146.474 20.751 146.457 20.9766 146.505 21.1927C146.554 21.4089 146.665 21.6059 146.825 21.7588C146.985 21.9117 147.187 22.0137 147.405 22.0518C147.624 22.0899 147.848 22.0624 148.051 21.9728C148.253 21.8832 148.425 21.7356 148.543 21.5486C148.662 21.3616 148.722 21.1436 148.717 20.9221C148.712 20.7007 148.641 20.4859 148.514 20.3048C148.343 20.0621 148.083 19.8972 147.791 19.8462C147.498 19.7951 147.198 19.8622 146.955 20.0326Z" fill="#263238"/>
<path d="M146.256 19.612C146.386 19.7419 147.103 19.111 148.161 19.043C149.218 18.975 150.016 19.4698 150.128 19.3275C150.239 19.1853 150.047 19.0306 149.701 18.7956C149.228 18.5 148.673 18.3634 148.117 18.406C147.561 18.4439 147.031 18.6609 146.608 19.0245C146.293 19.309 146.194 19.5564 146.256 19.612Z" fill="#263238"/>
<path d="M142.501 27.8319C141.943 27.6498 141.357 27.564 140.77 27.5783C140.491 27.5783 140.269 27.5165 140.244 27.368C140.215 27.0913 140.267 26.8123 140.392 26.564C140.621 25.8465 140.85 25.1229 141.097 24.3621C142.062 21.2263 142.718 18.6472 142.557 18.5977C142.396 18.5482 141.487 21.0717 140.516 24.1642C140.293 24.9311 140.077 25.661 139.86 26.3784C139.703 26.7459 139.675 27.1556 139.78 27.5412C139.826 27.644 139.895 27.7349 139.982 27.8067C140.069 27.8786 140.171 27.9295 140.281 27.9556C140.438 27.9856 140.598 27.996 140.757 27.9865C141.833 28.0051 142.501 27.9185 142.501 27.8319Z" fill="#263238"/>
<path d="M146.014 28.7905C147.078 28.0669 143.077 30.5903 140.918 30.646C141.31 31.1795 141.872 31.5638 142.512 31.7357C143.151 31.9077 143.83 31.8571 144.437 31.5923C146.689 30.5842 146.014 28.7905 146.014 28.7905Z" fill="white"/>
<path d="M142.681 40.8512C146.23 40.7007 149.654 39.4948 152.515 37.3876C152.515 37.3876 150.492 43.0654 142.786 42.8428L142.681 40.8512Z" fill="#EB996E"/>
<path d="M161.749 25.5311C158.972 27.77 155.607 21.9747 154.117 18.3441C152.626 14.7136 152.168 10.6933 151.952 6.72878C151.878 5.42994 151.865 4.0074 152.62 2.98688C153.375 1.96636 153.69 3.16006 154.642 2.21994C156.281 0.599484 154.723 0.5933 156.362 0.791219C159.164 1.13139 165.268 5.98658 165.782 8.92444C166.295 11.8623 165.881 14.8806 165.466 17.837C165.274 19.1853 165.083 20.5398 164.897 21.8881C164.831 22.8469 164.556 23.7797 164.093 24.6219C163.58 25.4135 162.572 25.9269 161.749 25.5311Z" fill="#263238"/>
<path d="M161.849 19.1791C161.848 18.8801 161.963 18.5925 162.169 18.376C162.375 18.1594 162.657 18.0307 162.956 18.0163C164.391 17.9792 166.735 18.5482 166.957 22.5066C167.273 28.1535 161.836 26.7433 161.818 26.5825C161.799 26.4217 161.836 21.381 161.849 19.1791Z" fill="#FFBE9D"/>
<path d="M163.06 24.3621C163.06 24.3621 163.165 24.424 163.332 24.492C163.449 24.5408 163.574 24.566 163.7 24.566C163.826 24.566 163.952 24.5408 164.068 24.492C164.656 24.2384 165.107 23.255 165.076 22.2469C165.065 21.7604 164.945 21.2826 164.724 20.8491C164.659 20.6762 164.554 20.5214 164.418 20.3976C164.281 20.2738 164.117 20.1847 163.938 20.1378C163.824 20.1123 163.704 20.1289 163.6 20.1845C163.497 20.2402 163.417 20.3312 163.375 20.4409C163.307 20.6017 163.375 20.713 163.32 20.7254C163.264 20.7377 163.19 20.6326 163.227 20.3976C163.249 20.2567 163.319 20.1278 163.425 20.0326C163.574 19.9062 163.768 19.844 163.963 19.8595C164.197 19.8918 164.419 19.9839 164.608 20.1269C164.796 20.2699 164.945 20.4589 165.039 20.6759C165.31 21.1518 165.458 21.6872 165.472 22.2345C165.472 23.3725 164.971 24.4734 164.167 24.7518C164.019 24.8056 163.861 24.8247 163.704 24.8076C163.547 24.7904 163.397 24.7375 163.264 24.6528C163.079 24.4982 163.041 24.3745 163.06 24.3621Z" fill="#EB996E"/>
<path d="M152.589 3.02398C151.776 5.62552 150.387 8.01011 148.525 9.9999C146.663 11.9897 144.375 13.5333 141.833 14.5156C141.628 14.6256 141.398 14.6831 141.165 14.6831C140.932 14.6831 140.703 14.6256 140.497 14.5156C140.027 14.1446 140.206 13.3652 140.602 12.9137C140.998 12.4622 141.548 12.1468 141.839 11.6211L138.963 13.2477C138.509 13.5394 138.006 13.7488 137.479 13.8662C137.213 13.9226 136.938 13.9096 136.679 13.8283C136.42 13.747 136.186 13.6003 136.001 13.4024C135.915 13.2996 135.853 13.1802 135.816 13.0518C135.78 12.9234 135.771 12.7888 135.789 12.6566C135.808 12.5245 135.854 12.3976 135.924 12.2843C135.995 12.1709 136.088 12.0736 136.199 11.9984C135.549 13.0622 133.885 13.1611 132.927 12.3633C132.475 11.9308 132.152 11.3816 131.994 10.7768C131.836 10.1719 131.848 9.53504 132.03 8.93681C132.411 7.74297 133.107 6.6744 134.046 5.84433C138.023 1.97254 143.806 0.568553 149.342 0.19127C151.048 0.0174009 152.771 0.0924041 154.457 0.413929C156.126 0.785027 158.712 0.648962 161.724 3.94555" fill="#263238"/>
<path d="M138.994 16.4886C138.932 16.668 137.924 16.4392 136.681 16.4886C135.438 16.5381 134.43 16.767 134.362 16.6C134.294 16.433 135.283 15.8701 136.663 15.8454C138.042 15.8207 139.062 16.334 138.994 16.4886Z" fill="#263238"/>
<path d="M150.295 16.6185C150.233 16.7917 149.256 16.5752 148.056 16.5196C146.856 16.4639 145.867 16.5691 145.817 16.3897C145.768 16.2103 146.776 15.8083 148.087 15.8763C149.398 15.9444 150.357 16.4577 150.295 16.6185Z" fill="#263238"/>
<path d="M165.083 13.3034C164.99 13.2477 165.293 12.6849 165.509 11.72C165.798 10.4704 165.727 9.16461 165.305 7.9534C164.856 6.75237 164.081 5.70058 163.066 4.91658C162.281 4.29808 161.687 4.06924 161.724 3.97028C161.761 3.87132 162.411 3.97028 163.326 4.54549C164.524 5.28625 165.436 6.41116 165.912 7.73666C166.388 9.06215 166.401 10.5099 165.949 11.8437C165.596 12.8519 165.138 13.3467 165.083 13.3034Z" fill="#455A64"/>
<path d="M172.195 79.4144L176.599 106.832L141.141 120.074L146.88 131.912L184.194 120.254C187.133 119.329 189.634 117.364 191.228 114.727C192.822 112.09 193.4 108.962 192.853 105.929L188.084 79.4268L172.195 79.4144Z" fill="#FFBE9D"/>
<path d="M141.357 119.994C141.357 119.994 134.757 117.891 131.59 117.081C130.353 116.765 125.078 119.555 121.429 121.868C121.429 121.868 116.406 124.849 116.815 125.765C117.26 126.779 119.115 126.569 122.066 125.183C122.066 125.183 121.033 128.17 123.061 128.109C123.061 128.109 122.053 131.343 123.952 131.677C125.851 132.011 126.296 127.886 127.966 127.663C129.636 127.441 133.1 127.218 133.1 127.218C133.1 127.218 135.976 131.987 138.208 132.321C140.441 132.655 147.09 131.9 147.09 131.9L141.357 119.994Z" fill="#FFBE9D"/>
<path d="M127.997 121.305C126.389 122.573 124.652 123.667 122.814 124.571C123.578 123.9 124.407 123.307 125.288 122.802C126.137 122.211 127.045 121.709 127.997 121.305Z" fill="#EB996E"/>
<path d="M128.566 123.142C127.603 123.762 126.584 124.292 125.523 124.725C124.508 125.252 123.446 125.682 122.351 126.012C123.31 125.388 124.327 124.858 125.387 124.429C126.405 123.902 127.469 123.471 128.566 123.142Z" fill="#EB996E"/>
<path d="M127.539 127.583C126.86 127.836 126.148 127.988 125.424 128.034C124.71 128.196 123.977 128.252 123.247 128.201C123.925 127.944 124.638 127.79 125.362 127.744C126.076 127.583 126.81 127.528 127.539 127.583Z" fill="#EB996E"/>
</svg>
