<svg xmlns="http://www.w3.org/2000/svg" viewBox="0 0 500 500"><g id="freepik--Device--inject-297"><g id="freepik--Monitor--inject-297"><path d="M255.67,429.22l46.23-26.73c4.76-2.76,7.14-6.36,7.14-10s0-6.43,0-6.43L265.56,361.4a10.17,10.17,0,0,1-4.6-8v-57l-80.75,46.66v57a10.17,10.17,0,0,0,4.6,8l36.34,21.16C230.68,434.72,246.13,434.72,255.67,429.22Z" style="fill:#263238"></path><path d="M199.6,410.18v6.41l-14.8-8.53a10.16,10.16,0,0,1-4.6-8v-57l15.39-8.87c.31,3.91.66,7.95,1,11.88l-10.79,6.24v44.53a10.11,10.11,0,0,0,4.6,8Z" style="opacity:0.15"></path><path d="M185.78,396.88a10.15,10.15,0,0,0,4.6,8l30.76,17.94c9.54,5.5,25,5.5,34.52,0l46.26-26.73c9.53-5.5,9.53-14.42,0-19.92l-30.79-17.95a10.18,10.18,0,0,1-4.6-8V305.68l-80.75,46.66Z" style="fill:#455a64"></path><path d="M280.51,363.61h0l-9.38-5.41a10.18,10.18,0,0,1-4.6-8V305.68l-80.75,46.66v44.54a10.15,10.15,0,0,0,4.6,8l9.21,5.32Z" style="opacity:0.15"></path><path d="M96.89,430.65c3,1.72,8,1.62,11.14-.21,39.7-22.92,222.25-128.34,262-151.25a12.75,12.75,0,0,0,5.75-10v-242c0-3.67-2.42-8-5.4-9.76s-8-1.62-11.15.21L97.25,168.88a12.73,12.73,0,0,0-5.76,10v242C91.49,424.56,93.91,428.93,96.89,430.65Z" style="fill:#455a64"></path><path d="M108,430.43,370,279.18a12.72,12.72,0,0,0,5.75-10v-242c0-3.66-2.58-5.15-5.75-3.32L108,175.11a12.69,12.69,0,0,0-5.75,10v242C102.28,430.78,104.86,432.27,108,430.43Z" style="fill:#37474f"></path><path d="M102.28,407.54v19.57c0,3.67,2.58,5.16,5.76,3.32L370,279.18a12.72,12.72,0,0,0,5.75-10V249.65Z" style="fill:#455a64"></path><path d="M109.89,389.34V187.63a7.79,7.79,0,0,1,3.54-6.12l251.15-145c1.95-1.13,3.54-.21,3.54,2V240.23a7.83,7.83,0,0,1-3.54,6.13l-251.17,145C111.47,392.51,109.89,391.59,109.89,389.34Z" style="fill:#263238"></path><path d="M93.19,173.16,104,179.38a12.19,12.19,0,0,0-1.71,5.68V427.11c0,3.35,2.27,5.22,5.75,3.33a12.21,12.21,0,0,1-11.14.21,11.08,11.08,0,0,1-5.4-9.07V178.85A11.87,11.87,0,0,1,93.19,173.16Z" style="fill:#263238"></path><path d="M235.83,341.36l13-7.47c1.17-.67,2.11-.19,2.11,1.07a4.52,4.52,0,0,1-2.1,3.5l-13,7.47c-1.16.67-2.11.2-2.11-1.07A4.53,4.53,0,0,1,235.83,341.36Z" style="fill:#511AFF"></path></g></g><g id="freepik--Screen--inject-297"><g id="freepik--Window--inject-297"><g id="freepik--window--inject-297"><path d="M125.52,381.25a4.36,4.36,0,0,1-2,.62,5.13,5.13,0,0,1-3-.52,5.59,5.59,0,0,1-2.45-4.43V219.2l4.91,2.83V379.74c0,1.19.59,1.87,1.45,1.87A2.57,2.57,0,0,0,125.52,381.25Z" style="fill:#e6e6e6"></path><path d="M124.36,381c-.75,0-.83-.87-.83-1.25V205.41L363.1,67.09V240.72a5.16,5.16,0,0,1-2.3,4l-235.59,136A1.74,1.74,0,0,1,124.36,381Z" style="fill:#fafafa"></path><path d="M362.49,68.16V240.72a4.55,4.55,0,0,1-2,3.46l-235.6,136a1.12,1.12,0,0,1-.54.19c-.21,0-.21-.63-.21-.64v-174L362.49,68.16M363.72,66l-240.8,139V379.74c0,1.19.59,1.87,1.44,1.87a2.38,2.38,0,0,0,1.16-.36l235.59-136a5.75,5.75,0,0,0,2.61-4.52V66Z" style="fill:#ebebeb"></path><path d="M120.46,213.09a5.61,5.61,0,0,1-2.45-4.43V188.28a5.76,5.76,0,0,1,2.61-4.52l235.59-136a4.91,4.91,0,0,1,7.51,4.34V72.46A5.76,5.76,0,0,1,361.11,77L125.52,213A5.61,5.61,0,0,1,120.46,213.09Z" style="fill:#511AFF"></path><path d="M363.69,51.65c-.18-1.35-1.28-1.84-2.58-1.08l-235.59,136a5.5,5.5,0,0,0-1.84,1.95l-4.9-2.83a5.38,5.38,0,0,1,1.84-1.94l235.59-136a4.87,4.87,0,0,1,7.48,3.9Z" style="fill:#fff;opacity:0.30000000000000004"></path><path d="M123.68,188.53a5.22,5.22,0,0,0-.76,2.57V222L118,219.2V188.28c0-.11,0-.21,0-.32a6.32,6.32,0,0,1,.1-.65,6.21,6.21,0,0,1,.66-1.61Z" style="opacity:0.2"></path><path d="M363.72,52.08V66L202.25,159.34c-1.43.83-2.6.15-2.6-1.51v-5.28c0-1.67-1.17-2.34-2.62-1.51l-61.71,35.54a5.78,5.78,0,0,0-2.61,4.52v5.28a5.76,5.76,0,0,1-2.61,4.52l-7.18,4.15v-14a5.79,5.79,0,0,1,2.6-4.52l235.59-136C362.55,49.74,363.72,50.41,363.72,52.08Z" style="fill:#511AFF"></path><path d="M356.24,59.56c1.1-.64,2-.12,2,1.16a4.42,4.42,0,0,1-2,3.46c-1.11.64-2,.12-2-1.15A4.42,4.42,0,0,1,356.24,59.56Z" style="fill:#fff"></path><path d="M349,63.72c1.1-.64,2-.13,2,1.15a4.44,4.44,0,0,1-2,3.47c-1.11.64-2,.12-2-1.16A4.41,4.41,0,0,1,349,63.72Z" style="fill:#fff"></path><path d="M341.82,67.87c1.1-.64,2-.12,2,1.16a4.44,4.44,0,0,1-2,3.47c-1.11.64-2,.12-2-1.16A4.42,4.42,0,0,1,341.82,67.87Z" style="fill:#fff"></path><path d="M363.72,66V83L122.92,222v-17l5.36-3.11c1.44-.83,1.92-2.09,2.61-4.52l1.82-6.32c.57-2.19,1.17-3.69,2.61-4.52L196,151.65c1.45-.83,2.58-.92,3.68.9l2.23,4c.82,1.41,1.23,2.25,2.66,1.42Z" style="fill:#e0e0e0"></path><polygon points="122.92 205.05 122.92 222.03 118.01 219.2 118.01 202.23 122.92 205.05" style="fill:#e0e0e0"></polygon><polygon points="122.92 205.05 122.92 222.03 118.01 219.2 118.01 202.23 122.92 205.05" style="opacity:0.15"></polygon><path d="M134.89,206.28l-4.1,2.36,1.57-3a.78.78,0,0,0,0-.74c-.12-.14-.33,0-.47.22l-2.22,4.28v0l-.06.16,0,0a1.64,1.64,0,0,0,0,.22,1.11,1.11,0,0,0,0,.19l0,0,.06.09h0l2.22,1.7a.18.18,0,0,0,.22,0,.68.68,0,0,0,.25-.31c.12-.28.1-.6,0-.7l-1.57-1.2,4.1-2.37a.87.87,0,0,0,.33-.7C135.22,206.31,135.07,206.17,134.89,206.28Z" style="opacity:0.15"></path><path d="M138.32,204.3l4.09-2.37-1.56-1.2c-.14-.1-.15-.41,0-.7s.33-.42.46-.31l2.23,1.71h0a.15.15,0,0,1,.06.09s0,0,0,0a.48.48,0,0,1,0,.18.91.91,0,0,1,0,.23l0,.05a.52.52,0,0,1-.06.16h0l-2.23,4.28a.6.6,0,0,1-.21.25.19.19,0,0,1-.25,0,.75.75,0,0,1,0-.74l1.56-3-4.09,2.37c-.19.1-.33,0-.33-.32A.86.86,0,0,1,138.32,204.3Z" style="opacity:0.15"></path><path d="M151.76,192.5c0-.25-.24-.22-.35.05l-.56,1.37c-1-.1-2.12.83-2.9,2.49-1,2.15-1,4.69,0,5.67a1.45,1.45,0,0,0,1.84.11,5.06,5.06,0,0,0,1.84-2.23.7.7,0,0,0,0-.72c-.13-.13-.34,0-.47.27-.75,1.6-2,2.31-2.75,1.58s-.75-2.62,0-4.23c.54-1.14,1.32-1.82,2-1.86l-.43,1c-.11.27,0,.52.17.4l1.67-1.09a.55.55,0,0,0,.19-.46Z" style="opacity:0.15"></path><path d="M194.17,159.4l1.5-3.16a1,1,0,0,0,0-1c-.18-.17-.47,0-.64.37l-1.5,3.17L192,157.35c-.18-.17-.46,0-.64.37a.94.94,0,0,0,0,1l1.49,1.44-1.49,3.16a1,1,0,0,0,0,1,.27.27,0,0,0,.32,0,.86.86,0,0,0,.32-.39l1.49-3.16,1.5,1.43a.24.24,0,0,0,.32,0,.87.87,0,0,0,.32-.39,1,1,0,0,0,0-1Z" style="opacity:0.15"></path><path d="M157.2,196.39V191.1a5.78,5.78,0,0,1,2.61-4.52L346.42,78.91c1.44-.83,2.61-.16,2.61,1.51V85.7a5.74,5.74,0,0,1-2.62,4.52L159.81,197.89C158.37,198.73,157.2,198.05,157.2,196.39Z" style="fill:#fafafa"></path><path d="M342.86,90.63a.59.59,0,0,1-.23,0,.69.69,0,0,1-.39-.79l.25-2.14-1-.72a.73.73,0,0,1-.28-.59,1.2,1.2,0,0,1,.43-.91l1.53-1.18a.25.25,0,0,0,.07-.12l.69-2.25a.94.94,0,0,1,.77-.73.61.61,0,0,1,.6.36l.58,1.22,1.29-.49a.61.61,0,0,1,.7.16.94.94,0,0,1,0,1l-1.11,2.08a.4.4,0,0,0,0,.13l.26,1.89a1.17,1.17,0,0,1-.32.94.71.71,0,0,1-.61.23l-1.25-.15-1.36,1.72A.76.76,0,0,1,342.86,90.63Zm-.74-4.36,1,.72a.79.79,0,0,1,.27.73l-.17,1.42.9-1.15a.71.71,0,0,1,.69-.33l1.25.15a.34.34,0,0,0,.05-.14l-.26-1.89a1.15,1.15,0,0,1,.13-.67l1-1.82-1,.38a.61.61,0,0,1-.79-.32l-.45-1-.61,2a1.11,1.11,0,0,1-.38.57l-1.54,1.19A.42.42,0,0,0,342.12,86.27Zm3.52-3.44Z" style="fill:#e0e0e0"></path><g style="opacity:0.15"><path d="M352.1,78.27a.91.91,0,0,1-.45-1.69L359,72.34a.9.9,0,1,1,.9,1.56l-7.34,4.25A1,1,0,0,1,352.1,78.27Z"></path><path d="M352.1,82.51a.9.9,0,0,1-.78-.45.91.91,0,0,1,.33-1.24L359,76.58a.9.9,0,0,1,1.23.33.91.91,0,0,1-.33,1.24l-7.34,4.24A1,1,0,0,1,352.1,82.51Z"></path><path d="M352.1,86.75a.9.9,0,0,1-.45-1.68L359,80.83a.88.88,0,0,1,1.23.33.9.9,0,0,1-.33,1.23l-7.34,4.24A.86.86,0,0,1,352.1,86.75Z"></path></g></g><path d="M151.92,216.19v-1.43a2.72,2.72,0,0,1,1.23-2.13l36.95-21.31c.68-.39,1.24-.08,1.24.71v1.43a2.74,2.74,0,0,1-1.23,2.14l-36.95,21.3C152.47,217.3,151.92,217,151.92,216.19Z" style="fill:#e0e0e0"></path><path d="M147.9,218.71l-.11.07a4.89,4.89,0,0,0,.05-.66c0-1.77-1.08-2.58-2.4-1.82a4.65,4.65,0,0,0-1.61,1.75c-.06-2.13-1.39-3.1-3-2.15a7.28,7.28,0,0,0-3,5.81,4.35,4.35,0,0,0,.06.74l-.21.12a4.62,4.62,0,0,0-1.94,3.69h0c0,1.42.87,2.11,1.94,1.49l2.81-1.62h0l7.48-4.32a2.77,2.77,0,0,0,1.16-2.22h0C149.06,218.74,148.55,218.34,147.9,218.71Z" style="fill:#511AFF"></path><g id="freepik--gear--inject-297"><path d="M309.39,125.22l-.53,0s-.06,0-.06-.11a3,3,0,0,0,0-.44.29.29,0,0,1,0-.19l.52-.74a.18.18,0,0,0,0-.16l-.26-.56s-.07-.07-.1,0l-.58.62a.09.09,0,0,1-.12,0,.64.64,0,0,0-.25-.15.12.12,0,0,1,0-.13l.13-.83c0-.06,0-.11-.05-.1l-.62.07s-.08,0-.09.1l-.26.87a.18.18,0,0,1-.09.13,2.94,2.94,0,0,0-.39.26s-.08,0-.11,0l-.29-.44a.06.06,0,0,0-.1,0l-.61.75a.21.21,0,0,0,0,.16l.18.57a.22.22,0,0,1,0,.18c-.09.18-.18.36-.26.54a.18.18,0,0,1-.1.11l-.58.16a.16.16,0,0,0-.09.12l-.21.94c0,.06,0,.11,0,.11l.53,0s.07,0,.06.11,0,.3,0,.44a.27.27,0,0,1,0,.18l-.52.74a.17.17,0,0,0,0,.17l.25.56c0,.05.07.06.1,0l.58-.61a.09.09,0,0,1,.12,0,1.28,1.28,0,0,0,.25.15.12.12,0,0,1,.05.13l-.12.83c0,.06,0,.11.05.1l.61-.07a.16.16,0,0,0,.1-.11l.25-.87a.24.24,0,0,1,.09-.12,2.94,2.94,0,0,0,.39-.26s.08,0,.11,0l.29.44s.07,0,.1,0l.61-.75a.19.19,0,0,0,0-.17l-.18-.56a.31.31,0,0,1,0-.19,4.49,4.49,0,0,0,.26-.54.16.16,0,0,1,.1-.1l.58-.16a.16.16,0,0,0,.09-.12l.21-1S309.43,125.22,309.39,125.22Zm-1.45.74c-.19.86-.81,1.61-1.37,1.68s-.86-.58-.67-1.44.81-1.61,1.37-1.68S308.13,125.1,307.94,126Z" style="fill:#e0e0e0"></path></g><path d="M323.62,116.51v-1c0-1.09-.67-1.6-1.49-1.12h0a3.57,3.57,0,0,0-1.49,2.85v.85a3.44,3.44,0,0,1-.5,1.68h0a.87.87,0,0,0-.13.44h0c0,.27.17.4.38.28l3.48-2a.89.89,0,0,0,.37-.72h0a.35.35,0,0,0-.11-.29h0A1,1,0,0,1,323.62,116.51Z" style="fill:#e0e0e0"></path><path d="M322.84,119.41a1.73,1.73,0,0,1-.71,1.37c-.4.22-.72,0-.72-.55Z" style="fill:#e0e0e0"></path><path d="M349.66,99.69,354.32,97a.78.78,0,0,0,.33-.63h0c0-.24-.14-.36-.33-.25l-4.66,2.69a.81.81,0,0,0-.33.63h0C349.33,99.68,349.48,99.8,349.66,99.69Z" style="fill:#e0e0e0"></path><path d="M349.66,101.82l4.66-2.7a.75.75,0,0,0,.33-.62h0c0-.25-.14-.36-.33-.25l-4.66,2.69a.79.79,0,0,0-.33.63h0C349.33,101.81,349.48,101.92,349.66,101.82Z" style="fill:#e0e0e0"></path><path d="M349.66,103.94l4.66-2.69a.77.77,0,0,0,.33-.63h0c0-.24-.14-.35-.33-.25l-4.66,2.7a.78.78,0,0,0-.33.63h0C349.33,103.94,349.48,104.05,349.66,103.94Z" style="fill:#e0e0e0"></path><path d="M337.25,108.85l-3.11-1.66,6.58-3.79-3.11,5.25C337.5,108.83,337.36,108.91,337.25,108.85Z" style="fill:#e0e0e0"></path><path d="M337.63,109.72l3.09-6.1v6.3l-6.58,3.79v-6.29l3.09,2.53C337.34,110.05,337.52,110,337.63,109.72Z" style="fill:#e0e0e0"></path><path d="M359.52,109.44a.5.5,0,0,0-.68-.18L127.3,242.93a.51.51,0,0,0-.18.69.5.5,0,0,0,.43.25.59.59,0,0,0,.25-.07L359.34,110.12A.5.5,0,0,0,359.52,109.44Z" style="fill:#e0e0e0"></path><path d="M138.5,244.78q1.13-.65,1.71-.18a2.35,2.35,0,0,1,.59,1.89,5.87,5.87,0,0,1-.3,1.9,4.85,4.85,0,0,1-.89,1.57l1.24,2.71a.32.32,0,0,1,0,.14.53.53,0,0,1-.06.24.45.45,0,0,1-.14.18l-.77.44c-.11.07-.2.07-.26,0a.44.44,0,0,1-.12-.17L138.35,251l-1.2.69v3.23a.66.66,0,0,1-.07.3.54.54,0,0,1-.17.21l-.73.42a.12.12,0,0,1-.17,0,.28.28,0,0,1-.07-.22v-9a.73.73,0,0,1,.07-.31.46.46,0,0,1,.17-.21Zm-1.35,5.15,1.31-.76a2.37,2.37,0,0,0,.82-.75,2.19,2.19,0,0,0,.3-1.23c0-.51-.1-.8-.3-.86a1.1,1.1,0,0,0-.82.21l-1.31.75Z" style="fill:#455a64"></path><path d="M146.16,248.33a.12.12,0,0,1,.17,0,.29.29,0,0,1,.07.22v1a.66.66,0,0,1-.07.3.46.46,0,0,1-.17.21l-3.95,2.28a.12.12,0,0,1-.17,0,.29.29,0,0,1-.07-.22v-9a.7.7,0,0,1,.07-.31.46.46,0,0,1,.17-.21l3.88-2.24a.13.13,0,0,1,.17,0,.32.32,0,0,1,.07.23v1a.73.73,0,0,1-.07.31.39.39,0,0,1-.17.2l-2.91,1.68V246l2.71-1.57a.13.13,0,0,1,.17,0,.32.32,0,0,1,.07.23v1a.73.73,0,0,1-.07.31.39.39,0,0,1-.17.2l-2.71,1.57v2.3Z" style="fill:#455a64"></path><path d="M150.17,238c.73-.42,1.3-.48,1.7-.18s.6.95.6,2a5.72,5.72,0,0,1-.6,2.68,4.29,4.29,0,0,1-1.7,1.78l-1.43.83v3.09a.67.67,0,0,1-.08.3.34.34,0,0,1-.17.21l-.73.43a.14.14,0,0,1-.17,0,.28.28,0,0,1-.07-.22v-9a.66.66,0,0,1,.07-.3.42.42,0,0,1,.17-.21Zm-1.43,5.34,1.39-.81a2.36,2.36,0,0,0,.82-.78,2.41,2.41,0,0,0,.3-1.27c0-.51-.1-.81-.3-.89a1,1,0,0,0-.82.17l-1.39.81Z" style="fill:#455a64"></path><path d="M153.24,239.89a8.42,8.42,0,0,1,.19-1.57,6.51,6.51,0,0,1,.49-1.47,5.33,5.33,0,0,1,.81-1.28,4.46,4.46,0,0,1,1.15-1,2.28,2.28,0,0,1,1.14-.37,1.12,1.12,0,0,1,.81.34,2.16,2.16,0,0,1,.5.9,5.83,5.83,0,0,1,.2,1.36c0,.17,0,.36,0,.57v1.32c0,.21,0,.41,0,.59a9.24,9.24,0,0,1-.2,1.57,6.59,6.59,0,0,1-.49,1.48,5.21,5.21,0,0,1-.81,1.26,4.24,4.24,0,0,1-1.15,1,2.32,2.32,0,0,1-1.15.37,1.15,1.15,0,0,1-.81-.33,1.93,1.93,0,0,1-.49-.91,5.36,5.36,0,0,1-.19-1.35c0-.17,0-.36,0-.57v-1.32C153.22,240.27,153.23,240.07,153.24,239.89Zm4.07-2.28a1.72,1.72,0,0,0-.42-1.3c-.25-.22-.59-.21-1,0a2.58,2.58,0,0,0-1,1.14,4.13,4.13,0,0,0-.42,1.78c0,.36,0,.75,0,1.18s0,.82,0,1.16a1.72,1.72,0,0,0,.42,1.3c.25.21.59.2,1,0a2.6,2.6,0,0,0,1-1.13,4.13,4.13,0,0,0,.42-1.78c0-.36,0-.75,0-1.18S157.32,238,157.31,237.61Z" style="fill:#455a64"></path><path d="M162.28,231.06c.75-.44,1.32-.5,1.71-.19a2.35,2.35,0,0,1,.59,1.89,5.87,5.87,0,0,1-.31,1.9,4.7,4.7,0,0,1-.88,1.58l1.24,2.7a.35.35,0,0,1,0,.14.61.61,0,0,1-.06.25.41.41,0,0,1-.14.17l-.77.44c-.12.07-.21.08-.26,0a.38.38,0,0,1-.12-.17l-1.18-2.55-1.2.69v3.23a.66.66,0,0,1-.07.3.42.42,0,0,1-.17.21l-.73.43c-.07,0-.13,0-.17,0a.28.28,0,0,1-.08-.22v-9a.67.67,0,0,1,.08-.3.34.34,0,0,1,.17-.21Zm-1.35,5.14,1.31-.75a2.44,2.44,0,0,0,.81-.75,2.16,2.16,0,0,0,.31-1.23c0-.52-.1-.81-.31-.87a1.19,1.19,0,0,0-.81.21l-1.31.76Z" style="fill:#455a64"></path><path d="M169.88,226.67a.14.14,0,0,1,.17,0,.29.29,0,0,1,.07.22v1a.66.66,0,0,1-.07.3.54.54,0,0,1-.17.21l-1.62.94v7.59a.67.67,0,0,1-.08.3.34.34,0,0,1-.17.21l-.73.43a.14.14,0,0,1-.17,0,.32.32,0,0,1-.07-.22V230l-1.62.93a.12.12,0,0,1-.17,0,.28.28,0,0,1-.07-.22v-1a.67.67,0,0,1,.07-.31.54.54,0,0,1,.17-.21Z" style="fill:#455a64"></path><polygon points="175.86 223.54 354.65 120.39 354.71 129.8 175.85 232.92 175.86 223.54" style="fill:#511AFF"></polygon><path d="M143.36,266.75a1,1,0,0,1-.5-1.87L256.6,199.22a1,1,0,0,1,1.36.36,1,1,0,0,1-.36,1.37L143.86,266.61A1,1,0,0,1,143.36,266.75Z" style="fill:#e0e0e0"></path><path d="M135.23,279.54a1,1,0,0,1-.5-1.87L256.6,207.32a1,1,0,0,1,1,1.73L135.73,279.41A1,1,0,0,1,135.23,279.54Z" style="fill:#e0e0e0"></path><path d="M135.23,287.64a1,1,0,0,1-.5-1.86L256.6,215.42a1,1,0,0,1,1,1.73L135.73,287.51A1,1,0,0,1,135.23,287.64Z" style="fill:#e0e0e0"></path><path d="M135.23,295.74a1,1,0,0,1-.86-.5,1,1,0,0,1,.36-1.36L256.6,223.52a1,1,0,0,1,1,1.73L135.73,295.61A1,1,0,0,1,135.23,295.74Z" style="fill:#e0e0e0"></path><path d="M135.23,303.85a1,1,0,0,1-.86-.5,1,1,0,0,1,.36-1.37L256.6,231.62a1,1,0,0,1,1,1.74L135.73,303.71A1,1,0,0,1,135.23,303.85Z" style="fill:#e0e0e0"></path><path d="M135.23,312a1,1,0,0,1-.86-.5,1,1,0,0,1,.36-1.37L256.6,239.73a1,1,0,0,1,1.36.36,1,1,0,0,1-.36,1.37L135.73,311.81A1,1,0,0,1,135.23,312Z" style="fill:#e0e0e0"></path><path d="M135.23,320.05a1,1,0,0,1-.86-.5,1,1,0,0,1,.36-1.37L256.6,247.83a1,1,0,0,1,1.36.36,1,1,0,0,1-.36,1.37L135.73,319.91A.9.9,0,0,1,135.23,320.05Z" style="fill:#e0e0e0"></path><path d="M143.36,331.56a1,1,0,0,1-.5-1.87L256.6,264a1,1,0,0,1,1,1.73L143.86,331.43A1,1,0,0,1,143.36,331.56Z" style="fill:#e0e0e0"></path><path d="M135.24,344.35a1,1,0,0,1-.51-1.86L256.6,272.13a1,1,0,0,1,1,1.73L135.73,344.22A1,1,0,0,1,135.24,344.35Z" style="fill:#e0e0e0"></path><path d="M135.24,352.45a1,1,0,0,1-.87-.5,1,1,0,0,1,.36-1.36L256.6,280.23a1,1,0,0,1,1,1.73L135.73,352.32A1,1,0,0,1,135.24,352.45Z" style="fill:#e0e0e0"></path><path d="M135.24,360.56a1,1,0,0,1-.5-1.87L256.6,288.33a1,1,0,0,1,1,1.74L135.74,360.42A1,1,0,0,1,135.24,360.56Z" style="fill:#e0e0e0"></path><g id="freepik--bar-graph--inject-297"><path d="M269.89,280.89l1.31.75a2.56,2.56,0,0,0,2.32,0L353,235.78a2.57,2.57,0,0,0,1.16-2V146.23a2.57,2.57,0,0,0-1.16-2l-1.31-.76a2.56,2.56,0,0,0-2.32,0l-79.44,45.87a2.57,2.57,0,0,0-1.16,2v87.53A2.57,2.57,0,0,0,269.89,280.89Z" style="fill:#f0f0f0"></path><path d="M273.52,281.64,353,235.78a2.57,2.57,0,0,0,1.16-2V146.23c0-.74-.52-1-1.16-.67l-79.44,45.87a2.57,2.57,0,0,0-1.16,2V281C272.36,281.71,272.88,282,273.52,281.64Z" style="fill:#fff"></path><path d="M273,282a.81.81,0,0,1-.41-.11,1,1,0,0,1-.45-.95V193.44a2.8,2.8,0,0,1,1.27-2.21l79.44-45.86a1,1,0,0,1,1-.08,1,1,0,0,1,.45.94v87.54a2.76,2.76,0,0,1-1.28,2.2l-79.44,45.87A1.31,1.31,0,0,1,273,282Zm80.48-136.4a.81.81,0,0,0-.41.13l-79.44,45.86a2.36,2.36,0,0,0-1.05,1.82V281a.63.63,0,0,0,.23.56.62.62,0,0,0,.6-.08l79.44-45.87a2.34,2.34,0,0,0,1-1.81V146.23a.62.62,0,0,0-.23-.56A.38.38,0,0,0,353.48,145.63Z" style="fill:#e0e0e0"></path><path d="M273.35,281.73a2.6,2.6,0,0,1-2.15-.09l-1.31-.75a2.59,2.59,0,0,1-1.16-2V191.34a2.41,2.41,0,0,1,.34-1.15l3.63,2.1a2.41,2.41,0,0,0-.34,1.15V281C272.36,281.65,272.79,282,273.35,281.73Z" style="fill:#e0e0e0"></path><g id="freepik--bar-graph--inject-297"><polygon points="332.68 238.64 332.68 190.92 328.42 188.46 328.42 236.18 332.68 238.64" style="fill:#511AFF"></polygon><polygon points="332.68 238.64 332.68 190.92 328.42 188.46 328.42 236.18 332.68 238.64" style="opacity:0.2"></polygon><polygon points="332.68 238.64 345.04 231.5 345.04 183.78 332.68 190.92 332.68 238.64" style="fill:#511AFF"></polygon><polygon points="345.04 183.78 340.78 181.32 328.42 188.46 332.68 190.92 345.04 183.78" style="fill:#511AFF"></polygon><polygon points="345.04 183.78 340.78 181.32 328.42 188.46 332.68 190.92 345.04 183.78" style="fill:#fff;opacity:0.25"></polygon><path d="M345,183.78l-12.36,6.95-4.26-2.27,4.09,2.72c-.1,1.4,0,46,.17,47.46.18-1.42.26-46.16.17-47.5Z" style="fill:#fff;opacity:0.30000000000000004"></path><polygon points="309.51 252.02 309.5 213.69 305.25 211.23 305.25 249.56 309.51 252.02" style="fill:#511AFF"></polygon><polygon points="309.51 252.02 309.5 213.69 305.25 211.23 305.25 249.56 309.51 252.02" style="fill:#fff;opacity:0.1"></polygon><polygon points="309.51 252.02 321.87 244.88 321.87 206.55 309.5 213.69 309.51 252.02" style="fill:#511AFF"></polygon><polygon points="309.51 252.02 321.87 244.88 321.87 206.55 309.5 213.69 309.51 252.02" style="fill:#fff;opacity:0.30000000000000004"></polygon><polygon points="321.87 206.55 317.61 204.09 305.25 211.23 309.5 213.69 321.87 206.55" style="fill:#511AFF"></polygon><polygon points="321.87 206.55 317.61 204.09 305.25 211.23 309.5 213.69 321.87 206.55" style="fill:#fff;opacity:0.55"></polygon><path d="M309.67,213.78l12.2-7.23-12.36,6.95c-1.35-.76-4.26-2.27-4.26-2.27s2.72,1.74,4.09,2.54c0,1.45.07,36.77.17,38.25C309.6,250.54,309.71,215.18,309.67,213.78Z" style="fill:#fff;opacity:0.30000000000000004"></path><polygon points="286.33 265.39 286.33 233.22 282.07 230.76 282.08 262.94 286.33 265.39" style="fill:#511AFF"></polygon><polygon points="286.33 265.39 286.33 233.22 282.07 230.76 282.08 262.94 286.33 265.39" style="opacity:0.45"></polygon><polygon points="286.33 265.39 298.69 258.26 298.69 226.09 286.33 233.22 286.33 265.39" style="fill:#511AFF"></polygon><polygon points="286.33 265.39 298.69 258.26 298.69 226.09 286.33 233.22 286.33 265.39" style="opacity:0.30000000000000004"></polygon><polygon points="298.69 226.09 294.44 223.63 282.07 230.76 286.33 233.22 298.69 226.09" style="fill:#511AFF"></polygon><polygon points="298.69 226.09 294.44 223.63 282.07 230.76 286.33 233.22 298.69 226.09" style="opacity:0.15"></polygon><path d="M298.7,226.08,286.33,233l-4.26-2.27,4.09,2.67s0,31.09.17,32c.19-.87.19-31.95.19-31.95Z" style="fill:#fff;opacity:0.30000000000000004"></path></g><g id="freepik--Arrow--inject-297"><polygon points="343.99 162.9 342.9 162.26 333.41 165.67 335.51 167.63 308.67 196.29 303.07 191.01 301.98 190.38 281.03 212.75 283.54 215.1 284.64 215.74 302.88 196.26 308.09 201.05 309.73 202 338.91 170.85 340.12 171.94 341.21 172.58 343.99 162.9" style="fill:#511AFF"></polygon><polygon points="343.99 162.9 342.9 162.26 333.41 165.67 335.51 167.63 308.67 196.29 303.07 191.01 301.98 190.38 281.03 212.75 283.54 215.1 284.64 215.74 302.88 196.26 308.09 201.05 309.73 202 338.91 170.85 340.12 171.94 341.21 172.58 343.99 162.9" style="fill:#fff;opacity:0.25"></polygon><polygon points="343.99 162.9 341.21 172.58 339.12 170.62 309.73 202 303.23 195.88 284.64 215.74 282.12 213.38 303.07 191.01 309.57 197.13 336.6 168.27 334.51 166.31 343.99 162.9" style="fill:#511AFF"></polygon><polygon points="303.23 195.88 302.88 196.26 308.09 201.05 309.73 202 303.23 195.88" style="fill:#511AFF"></polygon><polygon points="303.23 195.88 302.88 196.26 308.09 201.05 309.73 202 303.23 195.88" style="opacity:0.2"></polygon><polygon points="335.51 167.63 336.6 168.27 334.51 166.31 333.41 165.67 335.51 167.63" style="fill:#511AFF"></polygon><polygon points="335.51 167.63 336.6 168.27 334.51 166.31 333.41 165.67 335.51 167.63" style="opacity:0.2"></polygon><polygon points="338.91 170.85 339.12 170.62 341.21 172.58 340.12 171.94 338.91 170.85" style="fill:#511AFF"></polygon><polygon points="338.91 170.85 339.12 170.62 341.21 172.58 340.12 171.94 338.91 170.85" style="opacity:0.2"></polygon><polygon points="281.03 212.75 282.12 213.38 284.64 215.74 283.54 215.1 281.03 212.75" style="fill:#511AFF"></polygon><polygon points="281.03 212.75 282.12 213.38 284.64 215.74 283.54 215.1 281.03 212.75" style="opacity:0.2"></polygon><polygon points="289.03 206.01 303.07 191.48 309.57 197.13 303.07 191.01 289.03 206.01" style="fill:#fff;opacity:0.5"></polygon><polygon points="321.95 183.91 336.92 168.27 334.9 166.4 343.99 162.9 334.51 166.31 336.6 168.27 321.95 183.91" style="fill:#fff;opacity:0.5"></polygon></g></g></g></g><g id="freepik--window--inject-297"><g id="freepik--Document--inject-297"><path id="freepik--shadow--inject-297" d="M244.13,243.77v-3.91c0-2.78-1.95-3.9-4.36-2.51L142.9,293.29a9.63,9.63,0,0,0-4.36,7.55V454.58c0,2,1,3.11,2.41,3.11a4,4,0,0,0,2-.59l96.88-56a9.65,9.65,0,0,0,4.35-7.55Z" style="opacity:0.15"></path><g id="freepik--Sheet--inject-297"><path d="M253,248.94l-6.23-3.63L142.66,307.16V457a3.08,3.08,0,0,0,1.27,2.82h0l4.74,2.76h0a3.08,3.08,0,0,0,3.09-.31l96.88-55.95a9.65,9.65,0,0,0,4.35-7.55Z" style="fill:#e6e6e6"></path><path d="M143.93,459.82h0l4.74,2.76a2.27,2.27,0,0,0,1.14.28l-2.41-3.1V309.92l-4.75-2.76V457A3.08,3.08,0,0,0,143.93,459.82Z" style="opacity:0.15"></path><path d="M149.82,462.36a3.5,3.5,0,0,0,1.69-.52l96.88-55.95a9.08,9.08,0,0,0,4.11-7.11v-149l-104.59,60.4V459.76C147.91,461.39,148.62,462.36,149.82,462.36Z" style="fill:#fafafa"></path><path d="M252,250.68V398.77a8.67,8.67,0,0,1-3.86,6.68L151.26,461.4a3,3,0,0,1-1.44.46c-1.27,0-1.4-1.47-1.4-2.1V310.5L252,250.68m1-1.74-105.59,61V459.76c0,2,1,3.11,2.41,3.11a3.9,3.9,0,0,0,2-.6l96.88-55.95a9.65,9.65,0,0,0,4.35-7.55V248.94Z" style="fill:#e0e0e0"></path><path d="M247,239.48a3,3,0,0,0-3.12.28L147,295.71a9.63,9.63,0,0,0-4.36,7.55v3.9l4.75,2.76,105.59-61V245a3.07,3.07,0,0,0-1.26-2.81C251,241.79,247.73,239.92,247,239.48Z" style="fill:#511AFF"></path><path d="M147.41,306a9.63,9.63,0,0,1,4.36-7.54l96.87-56c2.41-1.39,4.36-.27,4.36,2.51v3.91l-105.59,61Z" style="fill:#511AFF"></path><path d="M147.41,306a9.63,9.63,0,0,1,4.36-7.54l96.87-56c2.41-1.39,4.36-.27,4.36,2.51v3.91l-105.59,61Z" style="fill:#fff;opacity:0.30000000000000004"></path><path d="M251.78,242.25a3,3,0,0,0-3.14.27l-96.87,56a8.78,8.78,0,0,0-3.08,3.25L143.93,299a9.08,9.08,0,0,1,3.09-3.26l96.88-55.95a3,3,0,0,1,3.12-.27c.71.43,4,2.31,4.72,2.73Z" style="fill:#511AFF"></path><path d="M251.78,242.25a3,3,0,0,0-3.14.27l-96.87,56a8.78,8.78,0,0,0-3.08,3.25L143.93,299a9.08,9.08,0,0,1,3.09-3.26l96.88-55.95a3,3,0,0,1,3.12-.27c.71.43,4,2.31,4.72,2.73Z" style="fill:#fff;opacity:0.45"></path><path d="M237.79,251.8a3.38,3.38,0,0,0-1.52,2.64c0,1,.68,1.36,1.52.87a3.35,3.35,0,0,0,1.52-2.63C239.31,251.71,238.63,251.32,237.79,251.8Z" style="fill:#fff"></path><path d="M243.11,248.73a3.38,3.38,0,0,0-1.52,2.64c0,1,.68,1.36,1.52.88a3.38,3.38,0,0,0,1.52-2.64C244.63,248.64,244,248.25,243.11,248.73Z" style="fill:#fff"></path><path d="M248.44,245.67a3.36,3.36,0,0,0-1.53,2.63c0,1,.69,1.37,1.53.88a3.35,3.35,0,0,0,1.52-2.63C250,245.58,249.28,245.18,248.44,245.67Z" style="fill:#fff"></path></g><g id="freepik--Article--inject-297"><path d="M204.32,350.91a.59.59,0,0,1-.5-.29.57.57,0,0,1,.21-.78l40.23-23.23a.57.57,0,1,1,.57,1L204.6,350.83A.6.6,0,0,1,204.32,350.91Z" style="fill:#e0e0e0"></path><path d="M204.32,356.25a.57.57,0,0,1-.29-1.07L244.26,332a.58.58,0,0,1,.78.21.56.56,0,0,1-.21.78L204.6,356.17A.6.6,0,0,1,204.32,356.25Z" style="fill:#e0e0e0"></path><path d="M204.32,361.59a.58.58,0,0,1-.5-.28.57.57,0,0,1,.21-.78l40.23-23.23a.57.57,0,1,1,.57,1L204.6,361.52A.58.58,0,0,1,204.32,361.59Z" style="fill:#e0e0e0"></path><path d="M204.32,366.93a.58.58,0,0,1-.5-.28.57.57,0,0,1,.21-.78l40.23-23.23a.57.57,0,0,1,.57,1L204.6,366.86A.58.58,0,0,1,204.32,366.93Z" style="fill:#e0e0e0"></path><path d="M157,345.56a.59.59,0,0,1-.5-.29.57.57,0,0,1,.21-.78l40.23-23.23a.57.57,0,0,1,.78.21.56.56,0,0,1-.21.78l-40.23,23.23A.6.6,0,0,1,157,345.56Z" style="fill:#e0e0e0"></path><path d="M157,350.9a.57.57,0,0,1-.29-1.07l40.23-23.22a.57.57,0,1,1,.57,1l-40.23,23.22A.5.5,0,0,1,157,350.9Z" style="fill:#e0e0e0"></path><path d="M157,356.24a.58.58,0,0,1-.5-.28.57.57,0,0,1,.21-.78L196.92,332a.57.57,0,0,1,.78.21.56.56,0,0,1-.21.78l-40.23,23.23A.58.58,0,0,1,157,356.24Z" style="fill:#e0e0e0"></path><path d="M157,361.54a.58.58,0,0,1-.5-.28.57.57,0,0,1,.21-.78l40.23-23.23a.57.57,0,0,1,.78.21.56.56,0,0,1-.21.78l-40.23,23.23A.58.58,0,0,1,157,361.54Z" style="fill:#e0e0e0"></path><path d="M157,329.28a.58.58,0,0,1-.5-.28.57.57,0,0,1,.21-.78L196.92,305a.57.57,0,1,1,.57,1l-40.23,23.23A.58.58,0,0,1,157,329.28Z" style="fill:#e0e0e0"></path><path d="M157,334.63a.59.59,0,0,1-.5-.29.57.57,0,0,1,.21-.78l40.23-23.23a.57.57,0,0,1,.78.21.56.56,0,0,1-.21.78l-40.23,23.23A.6.6,0,0,1,157,334.63Z" style="fill:#e0e0e0"></path><path d="M157,339.93a.59.59,0,0,1-.5-.29.57.57,0,0,1,.21-.78l40.23-23.23a.57.57,0,0,1,.78.21.56.56,0,0,1-.21.78l-40.23,23.23A.6.6,0,0,1,157,339.93Z" style="fill:#e0e0e0"></path><path d="M157,366.89a.57.57,0,0,1-.29-1.07l40.23-23.23a.58.58,0,0,1,.78.21.56.56,0,0,1-.21.78l-40.23,23.23A.6.6,0,0,1,157,366.89Z" style="fill:#e0e0e0"></path><path d="M157,372.23a.57.57,0,0,1-.29-1.07l40.23-23.22a.57.57,0,1,1,.57,1l-40.23,23.22A.5.5,0,0,1,157,372.23Z" style="fill:#e0e0e0"></path><path d="M157,377.69a.58.58,0,0,1-.5-.28.57.57,0,0,1,.21-.78l40.23-23.23a.57.57,0,0,1,.57,1l-40.23,23.23A.58.58,0,0,1,157,377.69Z" style="fill:#e0e0e0"></path><path d="M157,383a.59.59,0,0,1-.5-.29.57.57,0,0,1,.21-.78l40.23-23.23a.57.57,0,0,1,.78.21.56.56,0,0,1-.21.78L157.26,383A.6.6,0,0,1,157,383Z" style="fill:#e0e0e0"></path><path d="M157,388.38a.57.57,0,0,1-.29-1.07l40.23-23.22a.57.57,0,0,1,.78.2.57.57,0,0,1-.21.79L157.26,388.3A.5.5,0,0,1,157,388.38Z" style="fill:#e0e0e0"></path><path d="M157,394a.58.58,0,0,1-.5-.28.57.57,0,0,1,.21-.78l40.23-23.23a.57.57,0,0,1,.78.21.56.56,0,0,1-.21.78L157.26,393.9A.58.58,0,0,1,157,394Z" style="fill:#e0e0e0"></path><path d="M158.87,311.6c.62-.36,1.08-.41,1.41-.15a2,2,0,0,1,.48,1.56,4.74,4.74,0,0,1-.25,1.57,4,4,0,0,1-.73,1.29l1,2.23a.23.23,0,0,1,0,.11.52.52,0,0,1,0,.21.34.34,0,0,1-.12.14l-.63.36c-.1.06-.17.07-.22,0a.45.45,0,0,1-.1-.14l-1-2.1-1,.57v2.66a.74.74,0,0,1-.05.25.37.37,0,0,1-.15.17l-.6.35a.11.11,0,0,1-.14,0,.24.24,0,0,1-.06-.18v-7.38a.57.57,0,0,1,.06-.25.41.41,0,0,1,.14-.17Zm-1.12,4.24,1.08-.62a1.91,1.91,0,0,0,.67-.62,1.75,1.75,0,0,0,.26-1c0-.43-.09-.66-.26-.71a.92.92,0,0,0-.67.17l-1.08.62Z" style="fill:#455a64"></path><path d="M165.18,314.52a.12.12,0,0,1,.14,0,.25.25,0,0,1,.06.19v.81a.57.57,0,0,1-.06.25.41.41,0,0,1-.14.17l-3.26,1.88a.11.11,0,0,1-.14,0,.24.24,0,0,1-.06-.18v-7.38a.57.57,0,0,1,.06-.25.41.41,0,0,1,.14-.17l3.2-1.85a.11.11,0,0,1,.14,0,.24.24,0,0,1,.06.18V309a.62.62,0,0,1-.06.26.41.41,0,0,1-.14.17l-2.4,1.38v1.82l2.24-1.29a.11.11,0,0,1,.14,0,.24.24,0,0,1,.06.18v.81a.54.54,0,0,1-.06.25.39.39,0,0,1-.14.18l-2.24,1.29v1.89Z" style="fill:#455a64"></path><path d="M168.49,306.05c.6-.35,1.06-.4,1.39-.16a2,2,0,0,1,.5,1.62,4.71,4.71,0,0,1-.5,2.21,3.58,3.58,0,0,1-1.39,1.47l-1.19.68v2.55a.57.57,0,0,1-.06.25.41.41,0,0,1-.14.17l-.6.35a.11.11,0,0,1-.14,0,.24.24,0,0,1-.06-.18v-7.38a.57.57,0,0,1,.06-.25.45.45,0,0,1,.14-.18Zm-1.19,4.39,1.15-.66a1.93,1.93,0,0,0,.68-.65,2,2,0,0,0,.25-1c0-.43-.09-.67-.25-.74a.82.82,0,0,0-.68.15l-1.15.66Z" style="fill:#455a64"></path><path d="M171,307.57a7.22,7.22,0,0,1,.16-1.3,6.13,6.13,0,0,1,.4-1.21,4.8,4.8,0,0,1,.67-1.05,3.45,3.45,0,0,1,.95-.79,2,2,0,0,1,.94-.31,1,1,0,0,1,.67.28,1.79,1.79,0,0,1,.41.75,4.49,4.49,0,0,1,.16,1.11c0,.15,0,.3,0,.48s0,.35,0,.54,0,.37,0,.54,0,.34,0,.49a7.22,7.22,0,0,1-.16,1.3,5.54,5.54,0,0,1-.4,1.21,4.51,4.51,0,0,1-.67,1,3.61,3.61,0,0,1-.95.79,1.88,1.88,0,0,1-.95.31,1,1,0,0,1-.67-.27,1.78,1.78,0,0,1-.4-.75,4.56,4.56,0,0,1-.16-1.11c0-.15,0-.3,0-.48s0-.35,0-.54,0-.37,0-.54S171,307.72,171,307.57Zm3.36-1.88a1.44,1.44,0,0,0-.35-1.08c-.21-.18-.48-.17-.83,0a2.05,2.05,0,0,0-.83.93,3.54,3.54,0,0,0-.35,1.47c0,.3,0,.62,0,1s0,.68,0,1a1.45,1.45,0,0,0,.35,1.07c.21.18.48.16.83,0a2.14,2.14,0,0,0,.83-.92,3.39,3.39,0,0,0,.35-1.47c0-.3,0-.62,0-1S174.38,306,174.37,305.69Z" style="fill:#455a64"></path><path d="M178.47,300.29q.92-.54,1.41-.15a1.93,1.93,0,0,1,.48,1.56,5,5,0,0,1-.25,1.56,4,4,0,0,1-.73,1.3l1,2.23a.2.2,0,0,1,0,.11.45.45,0,0,1,0,.2.35.35,0,0,1-.12.14l-.63.37c-.1.06-.17.06-.22,0a.44.44,0,0,1-.1-.15l-1-2.1-1,.57v2.67a.61.61,0,0,1-.06.25.35.35,0,0,1-.14.17l-.6.35a.12.12,0,0,1-.14,0,.25.25,0,0,1-.06-.19v-7.37a.62.62,0,0,1,.06-.26.41.41,0,0,1,.14-.17Zm-1.12,4.24,1.08-.62a2.11,2.11,0,0,0,.67-.62,1.79,1.79,0,0,0,.26-1c0-.42-.09-.66-.26-.71a.93.93,0,0,0-.67.18l-1.08.62Z" style="fill:#455a64"></path><path d="M184.73,296.67a.11.11,0,0,1,.14,0,.24.24,0,0,1,.06.18v.82a.61.61,0,0,1-.06.25.41.41,0,0,1-.14.17l-1.34.77v6.26a.57.57,0,0,1-.06.25.35.35,0,0,1-.14.17l-.6.35a.11.11,0,0,1-.14,0,.24.24,0,0,1-.06-.18v-6.26l-1.34.77a.11.11,0,0,1-.14,0,.24.24,0,0,1-.06-.18v-.81a.62.62,0,0,1,.06-.26.41.41,0,0,1,.14-.17Z" style="fill:#455a64"></path><polygon points="189.66 294.09 246.89 261.02 246.94 268.77 189.65 301.82 189.66 294.09" style="fill:#511AFF"></polygon><g id="freepik--Chart--inject-297"><path d="M222.13,294.89l0,18.47-11.23,17.9c-4-5.08-2.8-17.75,3.38-27.77C216.8,299.45,219,296.86,222.13,294.89Z" style="fill:#511AFF"></path><path d="M222.13,294.89l0,18.47-11.23,17.9c-4-5.08-2.8-17.75,3.38-27.77C216.8,299.45,219,296.86,222.13,294.89Z" style="fill:#fff;opacity:0.2"></path><path d="M237.37,311.17c-2.22,11.23-10,21.66-17.59,23.52a7.48,7.48,0,0,1-7.58-1.86l11.29-18.26Z" style="fill:#511AFF"></path><path d="M237.37,311.17c-2.22,11.23-10,21.66-17.59,23.52a7.48,7.48,0,0,1-7.58-1.86l11.29-18.26Z" style="fill:#fff;opacity:0.30000000000000004"></path><path d="M237.66,309.23l-13.29,3.26,7.46-19.64C236.59,294.64,238.83,300.93,237.66,309.23Z" style="fill:#511AFF"></path><path d="M230.43,292.72l-6.74,17.72V294A9.39,9.39,0,0,1,230.43,292.72Z" style="fill:#511AFF"></path><path d="M230.43,292.72l-6.74,17.72V294A9.39,9.39,0,0,1,230.43,292.72Z" style="fill:#fff;opacity:0.5"></path></g><g id="freepik--chart--inject-297"><polygon points="244.26 399.06 157.17 449.35 157.17 402.61 244.26 352.32 244.26 351.32 156.98 401.71 156.42 402.04 156.42 450.78 244.26 400.07 244.26 399.06" style="fill:#e0e0e0"></polygon><polygon points="244.26 383.15 156.98 433.54 156.61 434.76 244.26 384.15 244.26 383.15" style="fill:#e0e0e0"></polygon><polygon points="244.26 367.24 156.98 417.63 156.61 418.85 244.26 368.24 244.26 367.24" style="fill:#e0e0e0"></polygon><polygon points="244.26 399.32 243.51 400.25 243.51 352.51 244.26 351.57 244.26 399.32" style="fill:#e0e0e0"></polygon><polygon points="233.38 405.6 232.63 406.54 232.63 358.79 233.38 357.86 233.38 405.6" style="fill:#e0e0e0"></polygon><polygon points="222.49 411.89 221.74 412.82 221.74 365.08 222.49 364.14 222.49 411.89" style="fill:#e0e0e0"></polygon><polygon points="211.6 418.17 210.85 419.11 210.85 371.36 211.6 370.43 211.6 418.17" style="fill:#e0e0e0"></polygon><polygon points="200.72 424.46 199.97 425.39 199.97 377.65 200.72 376.71 200.72 424.46" style="fill:#e0e0e0"></polygon><polygon points="189.83 430.74 189.08 431.68 189.08 383.93 189.83 383 189.83 430.74" style="fill:#e0e0e0"></polygon><polygon points="178.94 437.03 178.19 437.96 178.19 390.22 178.94 389.28 178.94 437.03" style="fill:#e0e0e0"></polygon><polygon points="168.06 443.31 167.3 444.25 167.3 396.5 168.06 395.57 168.06 443.31" style="fill:#e0e0e0"></polygon><path d="M156.77,443.2h0a.36.36,0,0,1-.36-.36.35.35,0,0,1,.37-.36h0c.27,0,.4-.92.47-1.47.11-.73.19-1.35.56-1.61a.33.33,0,0,1,.3-.06l.12-.39c.06-.21.12-.42.19-.6a5.19,5.19,0,0,1,.32-.63,2.62,2.62,0,0,0,.37-.9,11.78,11.78,0,0,0,.13-1.34,8,8,0,0,1,.38-2.55c.08-.15.28-.54.66-.47s.43.49.49.9a1.08,1.08,0,0,0,0,.25,1.58,1.58,0,0,1,.06.45c0,.05,0,.12,0,.17H161a.36.36,0,0,1,.31.23,2.75,2.75,0,0,1,.11.89,2.73,2.73,0,0,0,.07.65.43.43,0,0,0,.06.11l.05,0c0-.31,0-.64,0-1,0-1,0-2.13,1-2.43v-.85a14.13,14.13,0,0,1,.23-3.11,1.19,1.19,0,0,1,.34-.63.37.37,0,0,0,.12-.21,1.49,1.49,0,0,0,0-.36,2.34,2.34,0,0,1,0-.53c0-.18,0-.34.05-.48a2.76,2.76,0,0,1,.51-1.52.37.37,0,0,1,.28-.16,1.15,1.15,0,0,0,0-.18.36.36,0,0,1,.17-.33.35.35,0,0,1,.37,0c.42.24.48.91.56,1.69a5,5,0,0,0,.19,1.1,11.75,11.75,0,0,0,.29-1.64v-.12a.37.37,0,0,1,.33-.32.64.64,0,0,1,.43.14.76.76,0,0,1,.2.56v.07l.15.06a.41.41,0,0,1,.31.11h0l.2.27a2.48,2.48,0,0,0,.18.25,10.38,10.38,0,0,0,.05-1.57,9.77,9.77,0,0,1,.07-1.77,4.23,4.23,0,0,1,.52-1.5,4.76,4.76,0,0,0,.33-.72,10,10,0,0,0,.45-2.59,8.8,8.8,0,0,1,.84-3.61.38.38,0,0,1,.35-.18.33.33,0,0,1,.23.1c.21-.33.47-.56.78-.52.54.07.67.83.83,1.87a8.63,8.63,0,0,0,.26,1.2h0a.36.36,0,0,1,.34-.14.38.38,0,0,1,.29.24,12.21,12.21,0,0,1,.37,2.06l0,.21a.73.73,0,0,1,.48.17c0-.09.06-.22.1-.38a7,7,0,0,0,0-1.31c-.07-1.37-.07-2.29.37-2.67a.62.62,0,0,1,.28-.14,5.72,5.72,0,0,0,.17-.59c.14-.55.29-1.17.92-1.25.31-.05.52.12.62.49h.19l0-.08a8.5,8.5,0,0,0,.16-1.2,5.8,5.8,0,0,1,.4-2c.24-.5.55-.77.89-.74a1,1,0,0,1,.83.69.84.84,0,0,1,.46-.6l.08,0a.91.91,0,0,1,.21-.4.54.54,0,0,1,.48-.17c.36.05.56.42.7.69l.05.09a1.07,1.07,0,0,1,.07.15,1.77,1.77,0,0,0,0-.2c.07-.34.14-.63.37-.76a.52.52,0,0,1,.28-.06v-.07a1,1,0,0,1,.38-.94.47.47,0,0,1,.44,0,4.78,4.78,0,0,0,.16-1.26c0-.09,0-.19,0-.31a2.18,2.18,0,0,1,.15-1.26c.2-.34.43-.37.58-.34.37.08.43.53.46.75l.08.55c.08.54.17,1.1.2,1.69v.13a2.06,2.06,0,0,0,.27,1.2,1.51,1.51,0,0,1,.39,1.09,2.42,2.42,0,0,0,.26,1,1.57,1.57,0,0,1,.32.78,2.15,2.15,0,0,0,.06.29h0a.81.81,0,0,1,.37,0c0-.14.1-.32.16-.57l0-.11c0-.13.07-.34.12-.59a3.65,3.65,0,0,1,.55-1.75.44.44,0,0,1,.31-.14c0-.12,0-.27,0-.35l0-.42c0-.54.09-1,.45-1.17a.43.43,0,0,1,.17,0c.23-.68.52-1.47,1.16-1.37s.78,1,.91,1.78c0,.25.08.52.13.71a.53.53,0,0,0,0-.15,1.34,1.34,0,0,0,.05-.2,2,2,0,0,1,.14-.48.53.53,0,0,1,.26-.25,3.44,3.44,0,0,0,.3-1.61,6.32,6.32,0,0,1,.07-.9,15.31,15.31,0,0,1,.62-2.35l.11-.34c.07-.22.13-.52.2-.83a5.39,5.39,0,0,1,.46-1.54.38.38,0,0,1,.31-.17.46.46,0,0,1,.31.17,4.86,4.86,0,0,1,.43,2.22c0,.27,0,.53.06.77a1.64,1.64,0,0,0,.19.75.39.39,0,0,0,.13.13,1,1,0,0,1,.39.53,4,4,0,0,1,.07,1.12c0,.25,0,.49,0,.68a6,6,0,0,0,.23,1.15l.17,0c.71-.08.85.4,1,.87a1.17,1.17,0,0,0,.28.48l.17.23a3.06,3.06,0,0,1,.34,1.46l.12,1.45c.06.67.11,1.33.16,2,0,.14,0,.33,0,.55a7.64,7.64,0,0,0,.22,1.92,12.94,12.94,0,0,0,.13-2.94,8.45,8.45,0,0,1,0-.85,3,3,0,0,1,.38-1.2l.14-.3a4.44,4.44,0,0,0,.25-1.8v-.1c0-.1,0-.22,0-.36a5.1,5.1,0,0,1,.24-2.26.62.62,0,0,1,.54-.39.5.5,0,0,1,.35.22h.08c.09-.05.16-.39.21-.6.12-.58.2-1.1.28-1.61s.16-1,.27-1.56.18-.89.62-1.09a.45.45,0,0,1,.29,0,3.83,3.83,0,0,0,.28-.81,4.09,4.09,0,0,1,.31-.88,1.55,1.55,0,0,1,.2-.27l.07-.08a1.72,1.72,0,0,0,.25-.62l.08-.26a5,5,0,0,1,1-1.87.53.53,0,0,1,.7-.09c0-.16.12-.39.15-.53s.08-.3.12-.39a2.63,2.63,0,0,1,.55-1,1.06,1.06,0,0,1,1.19-.3c.86.37,1,1.85,1.16,3.15,0,.27.06.53.1.77a2.06,2.06,0,0,0,.22.85l.06.07a.87.87,0,0,1,.28.4,5,5,0,0,1,.12,1.51c0,.25,0,.49,0,.69v.31a8.66,8.66,0,0,0,.2,1.65,3.86,3.86,0,0,0,.16.48,4.33,4.33,0,0,1,.27.9c0,.19.06.38.08.58a5.59,5.59,0,0,0,.22,1.15,4,4,0,0,1,.11.39,4.77,4.77,0,0,0,.13.47.7.7,0,0,1,.21,0l.08,0a7.14,7.14,0,0,0,.25-1.44l0-.29c0-.49.13-1.17.68-1.37a.5.5,0,0,1,.55.16c0-.1,0-.22,0-.37v-.09c0-.29,0-.58,0-.88a7,7,0,0,1,.17-1.74,2.3,2.3,0,0,1,.31-.68.91.91,0,0,0,.18-.6v-2c0-.94,0-1.88,0-2.83v-.33a5.07,5.07,0,0,1,0-1c0-.18.06-.36.09-.53a4,4,0,0,0,.12-.81,2.8,2.8,0,0,1,.2-1,4.21,4.21,0,0,0,.12-.42l0-.14c.11-.54.23-1,.61-1.18a.56.56,0,0,1,.57.12,1.64,1.64,0,0,1,.41,1.22,1.77,1.77,0,0,0,.1.6l.08.15a2.2,2.2,0,0,1,.33,1.3c0,.19,0,.41,0,.62a3.79,3.79,0,0,0,.06,1.25,1.75,1.75,0,0,0,.2.35,1.72,1.72,0,0,1,.38.89c0,.11,0,.21,0,.32a1.28,1.28,0,0,0,0,.3s.06,0,.13.07a1,1,0,0,1,.4.29.86.86,0,0,1,.15.32,3.68,3.68,0,0,0,.11-.56,4.3,4.3,0,0,0,0-1.07,3.69,3.69,0,0,1,.26-2.14,2.49,2.49,0,0,1,.23-.31,1.38,1.38,0,0,0,.22-.35,4,4,0,0,0,.21-1l0-.15c0-.3.07-.59.1-.87a10.37,10.37,0,0,1,.33-2l.15-.42a4.5,4.5,0,0,0,.16-.48,4.93,4.93,0,0,0,.11-.87l0-.33a5.72,5.72,0,0,1,.53-1.8,8.64,8.64,0,0,0,.35-.92,11,11,0,0,0,.35-1.93,8.51,8.51,0,0,1,.71-2.94c.09-.16.34-.64.78-.57s.78,1,1,2.36c0,.23.07.42.09.49a.43.43,0,0,0,.22.22,1.22,1.22,0,0,1,.49.53,3.39,3.39,0,0,1,.17,1.2c0,.16,0,.3,0,.43a31.6,31.6,0,0,0,.86,4.48l.14.6c.05.19.08.42.12.66a3.21,3.21,0,0,0,.23,1,10.18,10.18,0,0,1,.95,4.39c0,.19,0,.39.05.59a.83.83,0,0,0,0-.15,1.76,1.76,0,0,1,.3-.76.7.7,0,0,1,.21-.18,6.43,6.43,0,0,0,.11-1.24c0-.12,0-.22,0-.28s0-.32,0-.49a4.1,4.1,0,0,1,.11-1.29,1,1,0,0,1,.38-.56.29.29,0,0,0,.1-.09,2.64,2.64,0,0,0,.24-.8c.12-.58.22-1.08.6-1.23a.6.6,0,0,1,.57.08.71.71,0,0,1,.15.15.29.29,0,0,1,.23,0,.58.58,0,0,1,.41.31,3.42,3.42,0,0,1,.22.58l.07.21c0-.24,0-.55-.05-1v-.14a5,5,0,0,1,.06-1.34c.08-.43.18-.86.28-1.3a15.43,15.43,0,0,0,.36-2l0-.2a3.6,3.6,0,0,1,.27-1.36c.07-.12.23-.4.52-.41h0a.38.38,0,0,1,.19,0c.06-.19.11-.45.15-.64.13-.66.25-1.24.64-1.41a.45.45,0,0,1,.42,0,.5.5,0,0,1,.24.28h0a.67.67,0,0,1,.62-.21c.3.08.4.37.48.59v0a8.84,8.84,0,0,0,.43-2.21c.17-1.37.27-2.1.71-2.31a.57.57,0,0,1,.56,0,.85.85,0,0,1,.32.55.42.42,0,0,1,.15,0c.15,0,.45,0,.67.48a7.77,7.77,0,0,1,.56,2.63l0,.27c0,.4.1.79.16,1.17a18.4,18.4,0,0,1,.21,1.9l0,.54c0,.45,0,.9.08,1.34a4.35,4.35,0,0,1,0,.53,4.08,4.08,0,0,0,.08.87,5,5,0,0,0,.56-1l.11-.23c.12-.27.24-.54.35-.82.19-.45.39-.92.62-1.34a1.74,1.74,0,0,1,.13-.2.54.54,0,0,0,.11-.18,1.85,1.85,0,0,0,.06-.25,1.28,1.28,0,0,1,.25-.66.5.5,0,0,1,.48-.19.41.41,0,0,1,.27.16c0-.12.06-.25.08-.36.08-.49.19-1.11.75-1.27a1.06,1.06,0,0,1,.85.21c.09.06.22.14.26.12s.22-.72.25-1.1a4.26,4.26,0,0,1,.13-.93,3.68,3.68,0,0,1,.55-1,1.3,1.3,0,0,1,.19-.17l.05-.05a.78.78,0,0,0,.08-.18,1.2,1.2,0,0,1,.14-.3,1.59,1.59,0,0,1,.46-.47,1,1,0,0,0,.36-.37.36.36,0,0,1,.49-.15.37.37,0,0,1,.15.49,1.7,1.7,0,0,1-.57.61,1,1,0,0,0-.28.27,1.05,1.05,0,0,0-.08.18,1.33,1.33,0,0,1-.16.34,1,1,0,0,1-.21.21,2.6,2.6,0,0,0-.48.84,3.8,3.8,0,0,0-.1.77c0,.66-.1,1.42-.66,1.69a1,1,0,0,1-.95-.15.65.65,0,0,0-.28-.13c-.12,0-.19.45-.23.7a1.75,1.75,0,0,1-.48,1.12.45.45,0,0,1-.61,0,2,2,0,0,1-.09.33,2.7,2.7,0,0,1-.19.33.73.73,0,0,0-.09.13,13.32,13.32,0,0,0-.58,1.26c-.12.29-.24.57-.37.84l-.1.23c-.33.72-.71,1.54-1.32,1.48s-.69-.93-.7-1.62c0-.17,0-.33,0-.47,0-.45-.06-.91-.08-1.38l0-.53a17.32,17.32,0,0,0-.21-1.83c0-.4-.11-.8-.16-1.2l0-.28a7.18,7.18,0,0,0-.5-2.37h0a.45.45,0,0,1-.45.08.67.67,0,0,1-.37-.49,14.32,14.32,0,0,0-.22,1.45c-.19,1.63-.35,2.63-.95,2.9a.59.59,0,0,1-.47,0,.84.84,0,0,1-.42-.58h0l0,.05a.63.63,0,0,1-.46.29.49.49,0,0,1-.39-.16v0l-.11.52c-.15.72-.27,1.28-.71,1.39a.39.39,0,0,1-.3,0,6,6,0,0,0-.12.91l0,.21a15.31,15.31,0,0,1-.38,2.07c-.09.42-.19.84-.26,1.26a3.73,3.73,0,0,0-.06,1.15v.13c.09,1,.09,1.77-.24,2.14a.45.45,0,0,1-.44.17c-.36-.08-.52-.52-.75-1.23,0-.09-.06-.21-.09-.29h-.08a.45.45,0,0,1-.48-.21c0,.17-.1.4-.14.56a2.74,2.74,0,0,1-.36,1.09,1.21,1.21,0,0,1-.24.23c-.07,0-.08.06-.12.19a3.68,3.68,0,0,0-.09,1.06,5,5,0,0,1,0,.55c0,.06,0,.15,0,.26a4.36,4.36,0,0,1-.19,1.56.55.55,0,0,1-.29.31,1.32,1.32,0,0,0-.16.45,1.62,1.62,0,0,1-.35.81.6.6,0,0,1-.66.23c-.24-.08-.39-.32-.42-.71s0-.58-.08-.87a9.9,9.9,0,0,0-.85-4.08,3.62,3.62,0,0,1-.33-1.25c0-.21-.06-.42-.1-.59l-.14-.6a31,31,0,0,1-.88-4.59c0-.14,0-.3,0-.47a2.75,2.75,0,0,0-.1-.92c0-.11-.1-.14-.22-.22a1.07,1.07,0,0,1-.5-.57,4.41,4.41,0,0,1-.13-.63,10.14,10.14,0,0,0-.39-1.66.35.35,0,0,1-.05.08,8.22,8.22,0,0,0-.64,2.7,11,11,0,0,1-.37,2.06,9.47,9.47,0,0,1-.37,1,5,5,0,0,0-.48,1.58l0,.31a6,6,0,0,1-.12,1c-.05.19-.12.37-.19.56a2.72,2.72,0,0,0-.13.37,8.3,8.3,0,0,0-.31,1.87c0,.29-.06.59-.1.9l0,.14a5,5,0,0,1-.26,1.17,1.63,1.63,0,0,1-.34.55,1.13,1.13,0,0,0-.15.21,3,3,0,0,0-.17,1.71,5.17,5.17,0,0,1,0,1.24c-.14.89-.31,1.31-.62,1.45a.52.52,0,0,1-.51,0,1,1,0,0,1-.34-.6,1.38,1.38,0,0,0-.09-.23.25.25,0,0,0-.12-.07.89.89,0,0,1-.44-.36,1.27,1.27,0,0,1-.14-.66,1.93,1.93,0,0,0,0-.24,1.07,1.07,0,0,0-.25-.57,2.15,2.15,0,0,1-.29-.51,4.24,4.24,0,0,1-.1-1.54c0-.2,0-.4,0-.58a1.5,1.5,0,0,0-.25-1l-.08-.16a2.14,2.14,0,0,1-.18-.89,2.85,2.85,0,0,0-.06-.52c0,.16-.08.36-.1.44a1.64,1.64,0,0,1,0,.18c0,.18-.1.33-.15.48a2.14,2.14,0,0,0-.16.75,4.36,4.36,0,0,1-.13,1c0,.16-.07.32-.09.48a5.88,5.88,0,0,0,0,.85v.34c0,.94,0,1.88,0,2.81,0,.67,0,1.34,0,2a1.66,1.66,0,0,1-.29,1,1.37,1.37,0,0,0-.22.47,6.91,6.91,0,0,0-.15,1.57c0,.32,0,.63,0,.94v.08a2.2,2.2,0,0,1-.28,1.17.51.51,0,0,1-.4.18.64.64,0,0,1-.48-.37,3.55,3.55,0,0,0-.11.62l0,.29c-.14,1.24-.3,2-.75,2.21a.56.56,0,0,1-.36,0,.57.57,0,0,1-.13-.08.48.48,0,0,1-.45-.1,2,2,0,0,1-.4-1,2.93,2.93,0,0,0-.09-.33,7.3,7.3,0,0,1-.26-1.3c0-.19,0-.37-.07-.56a4.66,4.66,0,0,0-.23-.75c-.07-.18-.14-.36-.19-.54a9.15,9.15,0,0,1-.22-1.81v-.3a6,6,0,0,1,0-.74,5.31,5.31,0,0,0-.08-1.28s0,0-.08-.09a.9.9,0,0,1-.18-.2,2.67,2.67,0,0,1-.34-1.16c0-.24-.06-.51-.09-.79-.11-.94-.26-2.36-.74-2.57a.37.37,0,0,0-.38.14,2.06,2.06,0,0,0-.39.74c0,.07-.06.19-.1.33a2.32,2.32,0,0,1-.44,1.05.5.5,0,0,1-.7,0,4.58,4.58,0,0,0-.7,1.47l-.07.25a2.6,2.6,0,0,1-.35.82,2.11,2.11,0,0,1-.15.19.24.24,0,0,0-.09.12,3.24,3.24,0,0,0-.24.71,2.33,2.33,0,0,1-.61,1.27.49.49,0,0,1-.41.09,1.46,1.46,0,0,0-.17.53c-.1.51-.18,1-.26,1.53s-.16,1.05-.27,1.58-.26,1.24-.87,1.25l-.07.06a.38.38,0,0,1-.33.07l-.1-.05a8.59,8.59,0,0,0,0,1.59c0,.15,0,.28,0,.38v.11a4.93,4.93,0,0,1-.31,2.09q-.07.18-.15.33a2.32,2.32,0,0,0-.31.95c0,.1,0,.42,0,.76.08,2.45,0,3.64-.72,3.76a.62.62,0,0,1-.52-.15c-.45-.37-.52-1.33-.55-2.55,0-.2,0-.38,0-.51-.05-.67-.1-1.34-.16-2l-.12-1.45a2.72,2.72,0,0,0-.22-1.11.86.86,0,0,0-.14-.18,2,2,0,0,1-.39-.71,1.76,1.76,0,0,0-.14-.39h-.09l-.12,0a.63.63,0,0,1-.8-.45,7.24,7.24,0,0,1-.28-1.34,6.68,6.68,0,0,1,0-.78,3.44,3.44,0,0,0,0-.89c0-.07,0-.1-.15-.17a1.35,1.35,0,0,1-.3-.32,2.27,2.27,0,0,1-.29-1.05c0-.26,0-.53-.06-.81s0-.51-.05-.76l0,.18c-.07.33-.14.65-.22.91l-.11.34a14,14,0,0,0-.6,2.24,6.56,6.56,0,0,0-.06.82,3.72,3.72,0,0,1-.45,2,.68.68,0,0,1-.19.17c0,.07-.05.18-.07.28s-.06.23-.07.26c-.14.42-.32.88-.71.9s-.55-.35-.61-.48a4.34,4.34,0,0,1-.26-1.1,4.37,4.37,0,0,0-.29-1.15,4.13,4.13,0,0,0-.42.95l-.08.24a.39.39,0,0,1-.24.23.47.47,0,0,1-.17,0c0,.14,0,.34-.06.47l0,.42a1.58,1.58,0,0,1-.24.88.42.42,0,0,1-.38.15,8.94,8.94,0,0,0-.29,1.28c-.05.27-.09.51-.13.65l0,.1c-.26,1-.41,1.3-.67,1.38a.45.45,0,0,1-.36,0,.46.46,0,0,1-.2-.27c-.2,0-.56,0-.7-.55,0-.12-.05-.23-.07-.32a1,1,0,0,0-.18-.48,2.63,2.63,0,0,1-.4-1.37c-.05-.49-.06-.52-.21-.67a2.52,2.52,0,0,1-.46-1.65v-.13c0-.17,0-.34,0-.51a3.23,3.23,0,0,1-.26,1.08.63.63,0,0,1-.43.39.49.49,0,0,1-.25,0,1.34,1.34,0,0,0,0,.2,1.38,1.38,0,0,1-.15.68.57.57,0,0,1-.49.33h0c-.08.39-.16.79-.47,1a.48.48,0,0,1-.39,0c-.27-.09-.42-.39-.53-.63l-.06-.12-.06-.1a1.47,1.47,0,0,0-.09-.17s0,0,0,.06a1,1,0,0,1-.42.68.42.42,0,0,1-.15,0,1.17,1.17,0,0,1-.22.41.53.53,0,0,1-.53.2c-.3-.07-.39-.37-.45-.57l0-.1a.88.88,0,0,0-.25-.37,1.22,1.22,0,0,0-.2.33,5.15,5.15,0,0,0-.34,1.76,8.38,8.38,0,0,1-.18,1.32c-.09.36-.15.73-.6.68h-.08a.32.32,0,0,1-.17.1.4.4,0,0,1-.54-.11.76.76,0,0,1-.18-.41,2.75,2.75,0,0,0-.18.57,4.41,4.41,0,0,1-.31.93.37.37,0,0,1-.4.2,6.08,6.08,0,0,0-.09,2.06,6.62,6.62,0,0,1,0,1.52c-.16.69-.29,1-.59,1.1a.59.59,0,0,1-.56-.23l-.1-.1-.09.06a.36.36,0,0,1-.6-.22q0-.33-.09-.69c-.06-.5-.12-1-.21-1.44a.71.71,0,0,1-.25,0c-.5-.13-.62-.87-.79-1.89A8.6,8.6,0,0,0,171,415a4.08,4.08,0,0,0-.33.6.36.36,0,0,1-.37.2.36.36,0,0,1-.18-.07,9.69,9.69,0,0,0-.48,2.71,10.76,10.76,0,0,1-.49,2.77,5.73,5.73,0,0,1-.37.82,3.51,3.51,0,0,0-.45,1.27,10,10,0,0,0-.06,1.64,9.23,9.23,0,0,1-.12,2.12.36.36,0,0,1-.18.24c-.6.33-1-.3-1.25-.61l0-.06a1.74,1.74,0,0,1-.4-.16,6.38,6.38,0,0,1-.24,1.05.36.36,0,0,1-.13.19.79.79,0,0,1-.79.15c-.47-.22-.55-.92-.63-1.74,0-.13,0-.29-.05-.46a.27.27,0,0,1-.15,0,2.21,2.21,0,0,0-.26,1c0,.16,0,.33-.06.53a2.13,2.13,0,0,0,0,.35,1.81,1.81,0,0,1,0,.57,1,1,0,0,1-.32.58.53.53,0,0,0-.15.27,14.54,14.54,0,0,0-.21,3c0,.4,0,.79,0,1.16a.36.36,0,0,1-.32.35c-.58.06-.65.59-.65,1.78a5.78,5.78,0,0,1-.19,1.74.36.36,0,0,1-.34.25h0a.36.36,0,0,1-.34-.24.32.32,0,0,0,0-.1.84.84,0,0,1-.62-.55,2.75,2.75,0,0,1-.12-.91c0-.15,0-.31,0-.45a.61.61,0,0,1-.44-.32,1.46,1.46,0,0,1-.09-.52,1.3,1.3,0,0,0,0-.23,0,0,0,0,1,0,0c-.07.49-.12,1.18-.16,1.69a13.6,13.6,0,0,1-.14,1.45,3.43,3.43,0,0,1-.46,1.12,5.18,5.18,0,0,0-.27.53c-.06.16-.11.34-.17.53a2.26,2.26,0,0,1-.67,1.3.31.31,0,0,1-.19.06c0,.21-.07.43-.09.6C157.83,442,157.67,443.2,156.77,443.2Zm3.57-10.08Zm16.2-18.55Zm5.05-4.61Zm.59-1.48Zm41.71-11.82Zm5.32-13.26Z" style="fill:#511AFF"></path></g><polygon points="217.72 371 220.54 369.37 220.54 374.54 219.13 377.69 217.72 376.17 217.72 371" style="fill:#511AFF"></polygon><polygon points="217.72 371 220.54 369.37 220.54 374.54 219.13 377.69 217.72 376.17 217.72 371" style="fill:#fff;opacity:0.30000000000000004"></polygon></g></g></g><g id="freepik--Character--inject-297"><g id="freepik--character--inject-297"><g id="freepik--Bottom--inject-297"><path d="M466.9,378.63c-.87-12,.57-25.18-.43-43.91h0c-.08-4.8-.26-9.94-.58-14.51-1.08-15.37-3.45-20.62-3.67-23.59,0,0-1.17-29.45-2.17-63.09-.47-15.82-5.06-20.61-8.72-29H407.79c-4.87,20.73-6.25,65.92-6.11,87.27.08,10.89,4.47,69.14,4.56,70.48.31,4.75-.1,6.62-2,8.62-3.9,4.19-9.55,8.17-14.44,11.82.71,1.87,6.59,1.81,9.5.38a73.55,73.55,0,0,0,10.85-6.92c4-3,9.15-5.36,9.21-9.88a4.54,4.54,0,0,1,.14-.81c.07-2.64,6.23-41.6,6.75-50.64.44-7.78-.51-21-.51-21l5-32.93s3.85,25,7,38.29c2.55,10.82,6.75,29.28,9.62,42.59h0c2.75,15.34,6.7,30.25,7.39,37.93.22,1.83,2.29,19.82,3.15,23.95s9.84,4.23,10.41-2.86C468.72,396.12,467.07,380.89,466.9,378.63Z" style="fill:#ffbda7"></path><path d="M381.51,387.5c-.25,0-.65,2.73.68,3.91,1.55,1.36,6.1,3.62,12.15,2.9s9.35-2.55,11.79-4.55,5.86-4.82,8.6-5.39c2.55-.54,5.32-1.66,6.14-2.44s.75-4.26.75-4.26Z" style="fill:#263238"></path><path d="M419.66,364.2s.45,0,.6.83c.17,1,.35,3.77.73,5.35a28.33,28.33,0,0,1,.5,8.49c-.35,1.78-4.51,3-7.16,4a33.67,33.67,0,0,0-8.63,5.32,25,25,0,0,1-12.81,4.62c-6,0-9.89-1.65-11.07-3.83-1.46-2.69-.28-4.23,6.67-7.36,1.31-.59,5.94-3.26,7.51-4.23a34.16,34.16,0,0,0,4.74-3.45,27.79,27.79,0,0,0,2.14-2.06,9.4,9.4,0,0,0,1.77-2.22c.08-.18.14-.4.21-.58a10.33,10.33,0,0,0,.47-1.62c.12-.57.19-1.41.75-1.75a4.6,4.6,0,0,1,2.47-.26,18.36,18.36,0,0,1,2.66.4c1,.24,2.19.34,2.78,1.31a5,5,0,0,1,.55,2.51c0,.4,0,.81,0,1.21,0,.17-.08.48.16.41s.5-.66.58-.87c.2-.45.33-.93.54-1.37a7.17,7.17,0,0,1,.88-1.46,6.8,6.8,0,0,1,1.11-1.1c.37-.29.85-.43,1.19-.75A2.92,2.92,0,0,0,419.66,364.2Z" style="fill:#37474f"></path><path d="M387.37,382.1c8.7.69,11.38,6.1,11.72,9.43a20.76,20.76,0,0,1-6.2,1.24c-6,0-10.14-1.65-11.32-3.83C380.19,386.4,381.17,384.38,387.37,382.1Z" style="fill:#fafafa"></path><path d="M400.42,382.33a.46.46,0,0,0,.27-.09.44.44,0,0,0,.07-.6,10.25,10.25,0,0,0-7.84-3.19.43.43,0,0,0-.39.46.43.43,0,0,0,.47.39,9.45,9.45,0,0,1,7.09,2.87A.44.44,0,0,0,400.42,382.33Z" style="fill:#f0f0f0"></path><path d="M404.19,380.18a.44.44,0,0,0,.27-.09.42.42,0,0,0,.07-.6,10.23,10.23,0,0,0-7.84-3.19.43.43,0,0,0,.08.85,9.49,9.49,0,0,1,7.1,2.87A.39.39,0,0,0,404.19,380.18Z" style="fill:#f0f0f0"></path><path d="M407.69,377.73a.39.39,0,0,0,.27-.1.42.42,0,0,0,.07-.6,10.26,10.26,0,0,0-7.84-3.18.42.42,0,1,0,.08.84,9.5,9.5,0,0,1,7.1,2.88A.45.45,0,0,0,407.69,377.73Z" style="fill:#f0f0f0"></path><path d="M411.13,375.27a.43.43,0,0,0,.34-.69c-1.65-2.12-5.4-3.55-8.57-3.24a.43.43,0,0,0,.08.85c2.85-.28,6.35,1,7.81,2.91A.47.47,0,0,0,411.13,375.27Z" style="fill:#f0f0f0"></path><path d="M455.1,406.91c.24,4.1.87,6.83,2.33,9.24s4.21,3.16,7,2.46,6.35-2.59,7.15-6.14,1.27-6,.63-9.78Z" style="fill:#263238"></path><path d="M466.8,377.16c1.15.09,1.49,5.61,2.15,11.13.71,5.92,2.48,8.37,3.11,13.22.72,5.55-.19,8-2.14,11.37s-8.82,6.65-12.21,1.84c-2.76-3.91-2.87-8.25-2.62-13.79a124.28,124.28,0,0,0-.37-14c-.22-4.15-1.14-8.33-.15-8.8.08.61.16,1.39.24,2a9.73,9.73,0,0,0,.37,2.21c.11.31.37.63.47.13a3.24,3.24,0,0,0,0-1c-.16-1.53.61-1.66,1-1.77a50.08,50.08,0,0,1,5.32-.76c.88-.06,3.91-.19,4.3.31a3.47,3.47,0,0,1,.38,1.6c.1.84.3,1.45.32,1.19.05-.6-.06-2.15-.08-2.53s-.07-.85-.07-1.21S466.83,377.52,466.8,377.16Z" style="fill:#37474f"></path><path d="M472.38,404.72a13.83,13.83,0,0,1-2.15,8.43c-1.94,3.35-9.37,6.65-12.76,1.85-1.69-2.39-2.14-5.21-2.37-8.1C457.13,403.2,469.17,401.57,472.38,404.72Z" style="fill:#fafafa"></path><path d="M457.6,400.88l.14,0c.05,0,5.36-2.22,10.53-1a.44.44,0,0,0,.51-.32.43.43,0,0,0-.32-.51,19.87,19.87,0,0,0-11.08,1.08.41.41,0,0,0-.2.57A.43.43,0,0,0,457.6,400.88Z" style="fill:#f0f0f0"></path><path d="M468,395.68a.42.42,0,0,0,.09-.82c-5.14-1.75-10.85.87-11.06,1a.43.43,0,0,0-.18.58.44.44,0,0,0,.57.18c.05,0,5.61-2.56,10.4-.94A.37.37,0,0,0,468,395.68Z" style="fill:#f0f0f0"></path><path d="M467.83,391.79a.43.43,0,0,0,.1-.83c-5.66-2-11.08.83-11.28,1a.42.42,0,0,0-.14.58.42.42,0,0,0,.58.14c.05,0,5.29-2.76,10.55-.88A.42.42,0,0,0,467.83,391.79Z" style="fill:#f0f0f0"></path><path d="M467.55,388a.42.42,0,0,0,.35-.27.43.43,0,0,0-.25-.55c-5.3-2-11.13.94-11.35,1.07a.42.42,0,0,0-.15.58.41.41,0,0,0,.58.16s5.7-2.86,10.62-1A.46.46,0,0,0,467.55,388Z" style="fill:#ebebeb"></path><path d="M452.5,204.66c5.15,9.41,9,17.1,9.5,45.07s1.2,41.35,1.31,44.72,2.07,9.4,3.79,26,.14,36.07.14,36.07-1.64,3-8,3.59c-5.86.52-8.77-1.68-8.77-1.68s-8-32.35-10.25-42.36-9.44-48.45-9.44-48.45L427,294.32s1.79,9.17,0,23.74S422,347.55,422,347.55a26.64,26.64,0,0,1-9,1.47,15.26,15.26,0,0,1-7.9-2.06s-5-43.35-5-59.87,1.39-57.8,6.59-82.24Z" style="fill:#455a64"></path><path d="M461.84,307.36c-.2-1-.4-1.87-.58-2.74-1.62-7.72-2.36-23.37-2.33-36.17,0-3.86,0-7.86,0-12.11-.14-16.66-1.43-35.31-9.85-47.34l-.68.47c5.66,8.09,8.05,19.28,9,30.83-8.36-1.11-10.2-9.37-12.69-20.74-.34-1.56-.69-3.16-1.07-4.82l-.81.19c.38,1.65.73,3.25,1.07,4.81,2.49,11.35,4.47,20.33,13.57,21.42.4,5.09.55,10.23.6,15.19,0,4.24,0,8.24,0,12.1,0,12.85.71,28.53,2.34,36.34.19.87.38,1.78.59,2.74,2.17,10,5.41,25,3.8,51.1a7.58,7.58,0,0,0,.86-.56C467.23,332.22,464,317.32,461.84,307.36ZM410.3,232.6c1.17,5.5,8.42,8.43,12.4,9.38l.6,3.36c-.19,3-.41,6.09-.63,9.32-1.21,17.76-2.46,36.13-1.56,40.28,2.4,10.91,1.69,17.82.41,30.38-.14,1.29-.27,2.63-.41,4-.73,7.29-1.53,14.44-2.06,19l.85-.2c.54-4.6,1.32-11.61,2-18.75.14-1.41.28-2.75.41-4,1.29-12.65,2-19.61-.42-30.65-.88-4,.43-23.17,1.58-40,.14-2,.28-4.05.41-6l3.55,19.69L427,294.32l3.84-26.69L426,238.78S416.44,239,410.3,232.6Z" style="fill:#37474f"></path></g><g id="freepik--Top--inject-297"><path d="M347,153.63a4.5,4.5,0,0,1,2.67-.09,29.13,29.13,0,0,1,4,1.7c2.06.84,5.38,2.22,7.62,1.87.45-.07,1.37-.36.69-.86a18.51,18.51,0,0,1-2.62-2,4,4,0,0,1-1.27-3,1.33,1.33,0,0,1,.37-.9c.34-.33.62-.18.94,0a9.66,9.66,0,0,0,1.08.5l2.24,1c4.36,1.94,8.75,4.28,11.64,8.19.41.57,3.06,5.12,4.72,7.67,1.39,2.33,10.72,16.9,10.72,16.9s10.53-14.26,13.53-18.62,6.91-6.45,13.18-7.61l-2.82,22.14S400.54,197,398.46,198.89c-3.08,2.8-9,8-13.6,4.35-5.66-4.47-8.41-12.8-11-18.8-2.89-6.75-3.9-10-5.34-12s-3.45-1.9-4.89-2.18a21.64,21.64,0,0,1-5.76-1.79,19.84,19.84,0,0,1-4.57-2.64,6.29,6.29,0,0,1-1.85-1.78,20.69,20.69,0,0,0-.63-2c-.42-.73-1.17-1.23-1.51-2a7.73,7.73,0,0,1-.34-1.94,3.32,3.32,0,0,0-1.67-2.14,3.12,3.12,0,0,1-1-1C346,154.26,346.4,153.86,347,153.63Z" style="fill:#ffbda7"></path><path d="M389.8,184.6a16.35,16.35,0,0,1,2.29,10c1.83-6,.11-9.83-1.11-11.57Z" style="fill:#f0997a"></path><path d="M364.07,158.77a14.55,14.55,0,0,0,5.72,5.75,6.06,6.06,0,0,1-4-1.48A5.69,5.69,0,0,1,364.07,158.77Z" style="fill:#f0997a"></path><path d="M461.08,224.05c-1.95-8.93-4.41-18.93-4.67-20.89-1.53-11.36.49-17.13,1.23-22.1,1.62-10.82-1.48-19.89-4-22,0,0-2.62-.6-5.75-1.35a44.37,44.37,0,0,0-5.4-1,65,65,0,0,0-14.46-.4c-1.17.12-6.73,1.08-6.73,1.08-1.68.39-4.76.95-4.77,1a35.65,35.65,0,0,0-7.44,9.57c-2.74,4.9-4.3,9-4.79,19.52-.62,13.37-.91,28.32-2.08,38.82C413.31,233.09,447.16,235.93,461.08,224.05Z" style="fill:#263238"></path><g id="freepik--Head--inject-297"><path d="M442.05,146.92c-.32.87-1.14-.08-1.94.47a2.85,2.85,0,0,1-2.15.05c-.38-.09-.77-.2-1.15-.32a18.33,18.33,0,0,1-5.53-3.2c-2.52-2-4.75-4.33-7.06-6.57a88,88,0,0,1-6.58-6.66c-1-1.16-4.87-4.72-6.23-7.25-1.18-2.19-.7-4.25.33-5-2.82.71-4.57-1-4.64-2.56a3.7,3.7,0,0,1,2.59-3.43,1.28,1.28,0,0,0,.65,1.69,1.76,1.76,0,0,0,1.87-.43,2.86,2.86,0,0,0,.77-1.83,4.63,4.63,0,0,0-.53-2.45,3.3,3.3,0,0,1,.85-3.77c.72-.53,1.89-1.3,6.92-.7a1.74,1.74,0,0,0,1.63-.65,4.38,4.38,0,0,0,.42-1.11,3.68,3.68,0,0,1,3-2.23,7.69,7.69,0,0,1,3.83.61,7.77,7.77,0,0,0,2.8.78c1.35,0,2.58-.86,3.93-.85,2.49,0,3.08,2.63,5.45,3.38,1.17.37,2.61-.5,4.34,1.49.73.85.4,2.22.94,3.21a6,6,0,0,0,1.64,1.7,3.61,3.61,0,0,1-.32,5.49c2.15.71,4.29,3.22,4.5,7.52a22.59,22.59,0,0,1-1.7,8.58C449.56,135.24,442.89,144.66,442.05,146.92Z" style="fill:#263238"></path><path d="M441.93,153.42c0-1.78.23-10.68.23-10.68.07.67,3.31,2.47,6.19-1s3.07-7.08,1.33-9.4c-1.92-2.56-6.93-2.5-7.4,1.84-2.49-.1-3.69-1.17-2.71-5.26-.26-2.86-3.5-3.7-3.42-9.94-8.17-5.4-16.45-5-21.42-.72a48.66,48.66,0,0,0-2,15.71c.36,9.44,2.89,14,5.92,15.58,2,1.06,3.87,1.31,7.4,1l-.16,3h0c-.06,1.49.07,2.59-1.37,3.07-1,.33-3.27.77-3.27.77s-3.36,5.81,5.9,6.33c14.77.83,20.69-6,20.69-6l-3.27-1C442.21,155.93,442,155.19,441.93,153.42Z" style="fill:#ffbda7"></path><path d="M429,139.41l-5.58,1.79a2.88,2.88,0,0,0,3.64,2A3.06,3.06,0,0,0,429,139.41Z" style="fill:#b16668"></path><path d="M428.66,140.7a3.24,3.24,0,0,0-3.22,2.52,2.75,2.75,0,0,0,1.63,0,3,3,0,0,0,2-2.44A3,3,0,0,0,428.66,140.7Z" style="fill:#f0997a"></path><path d="M415.6,125.77l3.49-2a1.91,1.91,0,0,0-2.66-.82A2.09,2.09,0,0,0,415.6,125.77Z" style="fill:#263238"></path><path d="M432.4,126l-3.86-1.21a1.93,1.93,0,0,1,2.47-1.36A2.12,2.12,0,0,1,432.4,126Z" style="fill:#263238"></path><path d="M419.58,129.23a1.71,1.71,0,0,1-1.53,1.82,1.6,1.6,0,0,1-1.79-1.47,1.7,1.7,0,0,1,1.53-1.82A1.6,1.6,0,0,1,419.58,129.23Z" style="fill:#263238"></path><path d="M431.67,129.5a1.72,1.72,0,0,1-1.53,1.82,1.6,1.6,0,0,1-1.79-1.47,1.71,1.71,0,0,1,1.53-1.82A1.6,1.6,0,0,1,431.67,129.5Z" style="fill:#263238"></path><path d="M418.24,134.53l5.28,2.5,1.06-10.16C422.48,126.92,420.36,130.41,418.24,134.53Z" style="fill:#f0997a"></path><path d="M426.1,150.59c6.34-.65,12.41-2.74,13.83-5.64a7.57,7.57,0,0,1-2.54,4.68c-4.23,3.54-11.41,3.21-11.41,3.21Z" style="fill:#f0997a"></path></g><g id="freepik--Arm--inject-297"><path d="M463.91,238.94c2.67.76,6.09-2.57,7-3.73s-.27-3.9-.83-6.22,0-6.24-2.87-5.14S458.33,232.69,463.91,238.94Z" style="fill:#f0997a"></path><path d="M453.64,159c7.44,1.1,10.89,2.88,15,11.12,4.77,9.59,12.49,22.93,13.68,27.09,1.11,3.87,3.33,6.63-.91,12.52-3.88,5.39-16.07,19.51-17.86,21.58-1.58,1.83-.7,7.08,4.74,6.3,0,0-4.14,3.67-6.42,3.26-2-.35-5.05-2.07-7.89-8-1.79-3.76-.29-6.71,2.43-10.9,3.25-5,10.27-18.93,10.27-18.93L454.1,180.74S447.3,165.65,453.64,159Z" style="fill:#ffbda7"></path></g></g></g></g><g id="freepik--speech-bubble--inject-297"><g id="freepik--speech-bubble--inject-297"><g id="freepik--speech-bubble--inject-297"><path d="M430.92,93.56a1.14,1.14,0,0,1-1-.67L426.68,86c-11.46-1-19.81-5.62-23.53-13.16a24.9,24.9,0,0,1,1.6-25.19c4.93-7.52,14.82-12.38,25.21-12.38,11.06,0,19.26,3.34,25.07,10.2h0c7.11,8.4,7.47,20.48,3.7,27.29-4.44,8-12.15,12.37-23.57,13.25L432,92.89A1.15,1.15,0,0,1,430.92,93.56ZM430,35.8c-10.2,0-19.9,4.76-24.73,12.12a24.34,24.34,0,0,0-1.56,24.61c4.91,10,16.66,12.34,23.23,12.86h.17l3.33,7.25a.59.59,0,0,0,1,0l3.34-7.24.17,0c11.47-.85,18.85-5,23.27-13,3.6-6.5,3.23-18.53-3.63-26.64C448.9,39.07,440.84,35.8,430,35.8Z" style="fill:#511AFF"></path></g><g id="freepik--pie-chart--inject-297"><path d="M446.39,62.68a15.2,15.2,0,1,1-30.4,0c0-.13,0-.27,0-.41l15.19.41-4.36-14.57a15.23,15.23,0,0,1,19.56,14.57Z" style="fill:#511AFF"></path><path d="M427.07,59.63l-15.18-.41a15.18,15.18,0,0,1,10.82-14.16Z" style="fill:#511AFF"></path><path d="M427.07,59.63l-15.18-.41a15.18,15.18,0,0,1,10.82-14.16Z" style="fill:#fff;opacity:0.30000000000000004"></path></g></g></g></svg>