<svg width="395" height="395" viewBox="0 0 395 395" fill="none" xmlns="http://www.w3.org/2000/svg">
<path d="M307.988 154.033C309.396 156.326 310.636 158.717 311.698 161.189C324.749 191.508 319.38 228.432 300.825 255.875C281.324 284.684 248.872 303.332 214.762 310.123C190.405 314.972 164.206 313.989 141.952 302.967C119.699 291.946 102.183 269.791 100.847 244.977C100.34 235.607 102.331 225.661 108.578 218.672C118.561 207.502 135.594 207.113 150.568 207.57C165.542 208.028 182.563 207.682 192.595 196.561C200.301 188.013 201.433 175.613 205.49 164.845C212.399 146.537 229.055 132.244 248.197 128.199C254.625 126.867 261.233 126.643 267.736 127.537C284.435 129.782 299.162 139.69 307.988 154.052V154.033Z" fill="#F5F5F5"/>
<path d="M239.224 237.128C245.025 236.627 250.919 236.126 256.69 236.819C262.461 237.512 268.175 239.584 271.305 243.196C273.934 246.233 274.447 249.999 274.892 253.556L278.715 284.264C279.042 286.868 279.333 289.571 278.183 292.045C275.635 297.456 266.252 300.011 258.774 298.322C255.454 297.588 252.338 296.128 249.648 294.047C246.959 291.966 244.763 289.316 243.219 286.286C240.553 280.905 240.213 275.079 239.904 269.364L238.203 238.248L238.958 237.753" fill="#263238"/>
<path d="M78 290.189L79.7998 296.516L251.668 346.429L310.783 307.414V302.095L78 290.189Z" fill="#263238"/>
<path d="M139.652 261.553L310.783 302.095L251.668 340.671L78 290.189L139.652 261.553Z" fill="#455A64"/>
<path d="M229.939 296.362L197.209 312.183L137.202 295.817L166.661 279.724L229.939 296.362Z" fill="#263238"/>
<path d="M193.851 295.694L202.541 298.563L210.587 294.191L197.197 289.892L189.379 293.95L193.851 295.694Z" fill="#455A64"/>
<path d="M129.564 251.632C129.837 252.721 137.203 295.817 137.203 295.817L197.197 312.183L189.299 266.08L129.564 251.632Z" fill="#263238"/>
<path d="M192.843 286.732C192.929 286.732 193.981 292.403 195.187 299.429C196.393 306.456 197.302 312.17 197.209 312.183C197.116 312.195 196.077 306.511 194.871 299.485C193.665 292.459 192.756 286.744 192.843 286.732Z" fill="#455A64"/>
<path d="M164.997 280.769C165.727 282.656 164.997 284.691 163.377 285.321C161.756 285.952 159.851 284.932 159.121 283.045C158.391 281.159 159.121 279.124 160.736 278.493C162.35 277.862 164.267 278.883 164.997 280.769Z" fill="#455A64"/>
<path d="M189.298 266.08C191.97 262.988 193.522 241.959 193.522 241.959L213.314 244.185C213.314 244.185 210.463 274.993 201.42 278.691L192.372 282.402" fill="#FFBE9D"/>
<path d="M254.32 272.679C254.32 272.679 263.078 282.495 262.553 290.671L247.01 286.961L253.003 272.655" fill="#511AFF"/>
<path d="M266.808 245.212C266.425 228.024 259.634 219.612 259.356 218.524C256.842 215.779 253.783 213.588 250.376 212.091C246.968 210.593 243.286 209.823 239.564 209.828L221.114 210.125C216.375 210.69 211.763 212.042 207.47 214.126L207.012 214.256V214.349C201.792 217.077 196.189 221.32 195.304 228.476L193.071 242.41L205.899 243.029C204.594 247.692 203.153 248.292 204.662 252.894L209.548 261.002C209.548 267.466 209.115 263.55 207.13 277.572L256.684 289.323C259.56 286.49 257.37 278.809 249.701 264.849C248.557 262.759 254.5 241.73 254.5 241.73L265.571 245.571" fill="#511AFF"/>
<path d="M208.793 237.697C208.67 238.002 208.521 238.296 208.347 238.576C208.038 239.132 207.593 239.924 207.067 240.92C206.053 242.905 204.637 245.781 204.5 249.214C204.42 250.815 204.71 252.413 205.348 253.883C205.9 255.074 206.605 256.189 207.444 257.198C208.156 258.071 208.774 258.739 209.195 259.215C209.423 259.445 209.63 259.696 209.813 259.963C209.559 259.753 209.321 259.524 209.102 259.277C208.657 258.831 208.007 258.182 207.247 257.316C206.365 256.312 205.628 255.19 205.057 253.982C204.38 252.475 204.07 250.827 204.154 249.177C204.228 247.54 204.564 245.926 205.15 244.396C205.622 243.152 206.189 241.947 206.845 240.79C207.395 239.8 207.877 239.021 208.211 238.489C208.384 238.21 208.578 237.945 208.793 237.697V237.697Z" fill="#263238"/>
<path d="M265.008 230.343L264.866 230.467C264.767 230.541 264.625 230.665 264.427 230.807C263.832 231.206 263.185 231.521 262.503 231.741C260.741 232.36 257.92 232.452 254.729 231.488C253.133 231.018 251.445 230.325 249.632 229.632C247.728 228.838 245.721 228.319 243.67 228.092C241.4 227.917 239.118 228.147 236.929 228.772C234.569 229.445 232.246 230.242 229.97 231.16C227.683 232.085 225.336 232.854 222.944 233.461C220.699 234.02 218.368 234.154 216.073 233.856C214.022 233.486 212.026 232.863 210.129 232.001C208.335 231.234 206.684 230.492 205.113 229.978C203.713 229.508 202.258 229.223 200.784 229.131C199.668 229.069 198.549 229.182 197.468 229.465C196.549 229.735 195.68 230.152 194.896 230.702C194.896 230.702 194.939 230.659 195.038 230.578C195.137 230.498 195.285 230.387 195.489 230.251C196.094 229.87 196.747 229.573 197.431 229.366C198.524 229.053 199.66 228.919 200.796 228.97C202.294 229.04 203.775 229.313 205.2 229.781C206.789 230.281 208.453 231.017 210.247 231.772C212.127 232.628 214.104 233.251 216.135 233.628C218.394 233.912 220.687 233.771 222.895 233.213C225.272 232.608 227.605 231.842 229.878 230.919C232.162 229.996 234.495 229.199 236.867 228.531C239.093 227.9 241.413 227.672 243.72 227.857C245.793 228.094 247.822 228.627 249.744 229.44C251.562 230.145 253.232 230.844 254.809 231.327C257.964 232.304 260.734 232.236 262.485 231.679C263.393 231.375 264.246 230.923 265.008 230.343V230.343Z" fill="#263238"/>
<path d="M249.795 261.07C249.669 261.137 249.536 261.189 249.399 261.225L248.236 261.596C246.804 262.05 245.34 262.399 243.857 262.641C242.835 262.802 241.799 262.865 240.765 262.827C239.567 262.764 238.381 262.556 237.233 262.208C234.802 261.503 232.341 260.211 229.65 259.184C228.337 258.699 226.989 258.313 225.618 258.027C224.337 257.782 223.041 257.618 221.74 257.539C219.53 257.428 217.315 257.58 215.14 257.99C213.667 258.267 212.218 258.666 210.811 259.184C210.31 259.345 209.933 259.524 209.673 259.617C209.543 259.678 209.406 259.723 209.265 259.753C209.389 259.68 209.517 259.614 209.648 259.555C209.902 259.444 210.267 259.252 210.768 259.066C212.167 258.499 213.616 258.064 215.097 257.767C217.285 257.32 219.521 257.143 221.752 257.242C223.07 257.314 224.382 257.473 225.68 257.718C227.068 258.004 228.432 258.395 229.762 258.887C232.483 259.92 234.926 261.212 237.32 261.924C238.444 262.265 239.604 262.472 240.777 262.542C241.81 262.593 242.846 262.545 243.87 262.4C245.345 262.178 246.806 261.864 248.242 261.46L249.424 261.144C249.544 261.107 249.669 261.082 249.795 261.07Z" fill="#263238"/>
<path d="M227.323 279.217C227.046 279.224 226.769 279.195 226.5 279.13C225.756 279.002 225.021 278.828 224.298 278.611C222.443 278.104 220.031 277.052 217.26 276.236C214.912 275.48 212.409 275.344 209.993 275.84C209.01 276.105 208.071 276.509 207.203 277.04C207.203 277.04 207.246 276.978 207.358 276.891C207.515 276.759 207.683 276.639 207.859 276.533C208.5 276.123 209.201 275.814 209.937 275.617C211.792 275.067 214.538 275.104 217.359 275.927C220.179 276.749 222.56 277.831 224.373 278.401C225.276 278.691 226.018 278.895 226.531 279.019C226.8 279.061 227.065 279.127 227.323 279.217Z" fill="#263238"/>
<g opacity="0.1">
<path opacity="0.1" d="M250.196 241.414C250.196 241.414 242.119 259.221 249.163 270.861L252.466 269.624L249.701 264.8C249.514 264.068 249.482 263.305 249.609 262.561C250.017 260.025 250.802 255.887 251.854 251.719L250.196 241.414Z" fill="black"/>
</g>
<path d="M236.712 177.14C240.695 180.616 242.47 186.084 242.6 191.366C242.73 196.648 242.266 202.641 242.39 208.152L250.467 207.991C255.805 208.152 261.854 207.589 266.963 207.193C267.817 207.201 268.658 206.988 269.406 206.575C270.581 205.777 270.847 204.187 271.008 202.777C271.261 200.557 271.502 198.262 270.865 196.122C270.228 193.982 268.459 192.009 266.233 191.848C265.447 191.792 264.625 191.959 263.895 191.663C263.481 191.452 263.122 191.147 262.848 190.772C262.574 190.397 262.392 189.963 262.318 189.504C262.114 188.601 262.144 187.649 262.008 186.746C261.785 185.379 261.198 184.099 260.309 183.038C259.42 181.977 258.261 181.174 256.955 180.715C255.298 180.152 253.3 180.097 252.211 178.711C250.888 177.048 251.754 174.642 251.828 172.526C251.876 171.056 251.503 169.602 250.752 168.336C250.001 167.071 248.905 166.046 247.591 165.383C246.278 164.72 244.802 164.447 243.338 164.595C241.874 164.742 240.483 165.306 239.328 166.218" fill="#263238"/>
<path d="M230.465 219.946C228.031 219.941 225.692 218.996 223.936 217.31C222.181 215.623 221.143 213.324 221.04 210.892C220.866 206.822 220.724 202.963 220.724 202.963C220.724 202.963 212.937 202.239 212.381 194.563C211.824 186.888 212.059 169.168 212.059 169.168C216.31 167.021 221.057 166.047 225.809 166.348C230.562 166.65 235.148 168.214 239.094 170.881L240.287 171.691L239.935 210.57C239.912 213.066 238.904 215.452 237.13 217.208C235.357 218.964 232.961 219.948 230.465 219.946Z" fill="#FFBE9D"/>
<path d="M215.474 183.727C215.63 183.571 215.737 183.371 215.78 183.154C215.823 182.937 215.801 182.712 215.716 182.507C215.631 182.303 215.488 182.128 215.304 182.005C215.12 181.882 214.903 181.816 214.682 181.816C214.461 181.816 214.244 181.882 214.06 182.005C213.876 182.128 213.732 182.303 213.648 182.507C213.563 182.712 213.541 182.937 213.584 183.154C213.627 183.371 213.734 183.571 213.89 183.727C213.994 183.832 214.117 183.915 214.253 183.972C214.389 184.029 214.535 184.058 214.682 184.058C214.829 184.058 214.975 184.029 215.111 183.972C215.247 183.915 215.37 183.832 215.474 183.727Z" fill="#263238"/>
<path d="M212.715 181.377C212.845 181.507 213.562 180.876 214.62 180.808C215.677 180.74 216.475 181.235 216.587 181.093C216.698 180.95 216.506 180.796 216.154 180.561C215.68 180.266 215.126 180.129 214.57 180.17C214.014 180.212 213.486 180.428 213.061 180.789C212.752 181.074 212.653 181.346 212.715 181.377Z" fill="#263238"/>
<path d="M224.955 182.033C224.774 182.16 224.634 182.338 224.554 182.544C224.474 182.751 224.457 182.977 224.505 183.193C224.554 183.409 224.665 183.606 224.825 183.759C224.985 183.912 225.187 184.014 225.405 184.052C225.624 184.09 225.848 184.062 226.051 183.973C226.253 183.883 226.425 183.736 226.543 183.549C226.662 183.362 226.722 183.144 226.717 182.922C226.712 182.701 226.641 182.486 226.514 182.305C226.343 182.062 226.083 181.897 225.791 181.846C225.498 181.795 225.198 181.862 224.955 182.033V182.033Z" fill="#263238"/>
<path d="M224.256 181.612C224.386 181.742 225.103 181.111 226.161 181.043C227.218 180.975 228.016 181.47 228.128 181.328C228.239 181.185 228.047 181.031 227.701 180.796C227.228 180.5 226.673 180.363 226.117 180.406C225.561 180.444 225.031 180.661 224.608 181.024C224.293 181.309 224.194 181.556 224.256 181.612Z" fill="#263238"/>
<path d="M220.501 189.832C219.943 189.65 219.357 189.564 218.77 189.578C218.491 189.578 218.269 189.516 218.244 189.368C218.215 189.091 218.267 188.812 218.392 188.564C218.621 187.847 218.85 187.123 219.097 186.362C220.062 183.226 220.718 180.647 220.557 180.598C220.396 180.548 219.487 183.072 218.516 186.164C218.293 186.931 218.077 187.661 217.86 188.378C217.703 188.746 217.675 189.156 217.78 189.541C217.826 189.644 217.895 189.735 217.982 189.807C218.069 189.879 218.171 189.929 218.281 189.956C218.438 189.986 218.598 189.996 218.757 189.987C219.833 190.005 220.501 189.918 220.501 189.832Z" fill="#263238"/>
<path d="M224.014 190.791C225.078 190.067 221.077 192.59 218.918 192.646C219.31 193.18 219.872 193.564 220.512 193.736C221.151 193.908 221.83 193.857 222.437 193.592C224.689 192.584 224.014 190.791 224.014 190.791Z" fill="white"/>
<path d="M220.681 202.851C224.23 202.701 227.654 201.495 230.515 199.388C230.515 199.388 228.492 205.065 220.786 204.843L220.681 202.851Z" fill="#EB996E"/>
<path d="M239.749 187.531C236.972 189.77 233.607 183.975 232.117 180.344C230.626 176.714 230.168 172.693 229.952 168.729C229.878 167.43 229.865 166.007 230.62 164.987C231.375 163.966 231.69 165.16 232.642 164.22C234.281 162.599 232.723 162.593 234.362 162.791C237.164 163.131 243.268 167.987 243.782 170.924C244.295 173.862 243.881 176.881 243.466 179.837C243.274 181.185 243.083 182.54 242.897 183.888C242.831 184.847 242.556 185.78 242.093 186.622C241.58 187.414 240.572 187.927 239.749 187.531" fill="#263238"/>
<path d="M239.849 181.179C239.848 180.88 239.963 180.593 240.169 180.376C240.375 180.159 240.657 180.031 240.956 180.016C242.391 179.979 244.735 180.548 244.957 184.507C245.273 190.153 239.836 188.743 239.818 188.582C239.799 188.422 239.836 183.381 239.849 181.179Z" fill="#FFBE9D"/>
<path d="M241.06 186.362C241.06 186.362 241.165 186.424 241.332 186.492C241.449 186.541 241.574 186.566 241.7 186.566C241.826 186.566 241.952 186.541 242.068 186.492C242.656 186.238 243.107 185.255 243.076 184.247C243.065 183.76 242.945 183.283 242.724 182.849C242.659 182.676 242.554 182.521 242.418 182.398C242.281 182.274 242.117 182.185 241.938 182.138C241.824 182.112 241.704 182.129 241.6 182.185C241.497 182.24 241.417 182.331 241.375 182.441C241.307 182.602 241.375 182.713 241.32 182.725C241.264 182.738 241.19 182.633 241.227 182.398C241.249 182.257 241.319 182.128 241.425 182.033C241.574 181.906 241.768 181.844 241.963 181.859C242.197 181.892 242.419 181.984 242.608 182.127C242.796 182.27 242.945 182.459 243.039 182.676C243.31 183.152 243.458 183.687 243.472 184.234C243.472 185.373 242.971 186.473 242.167 186.752C242.019 186.806 241.861 186.825 241.704 186.808C241.547 186.79 241.397 186.737 241.264 186.653C241.079 186.498 241.041 186.374 241.06 186.362Z" fill="#EB996E"/>
<path d="M230.589 165.024C229.776 167.626 228.387 170.01 226.525 172C224.663 173.99 222.375 175.533 219.833 176.516C219.628 176.626 219.398 176.683 219.165 176.683C218.932 176.683 218.703 176.626 218.497 176.516C218.027 176.145 218.206 175.365 218.602 174.914C218.998 174.462 219.548 174.147 219.839 173.621L216.963 175.248C216.509 175.539 216.006 175.749 215.479 175.866C215.213 175.923 214.938 175.91 214.679 175.828C214.42 175.747 214.186 175.6 214.001 175.402C213.915 175.3 213.853 175.18 213.816 175.052C213.78 174.923 213.771 174.789 213.789 174.657C213.808 174.524 213.854 174.398 213.924 174.284C213.995 174.171 214.088 174.074 214.199 173.998C213.549 175.062 211.885 175.161 210.927 174.363C210.475 173.931 210.152 173.382 209.994 172.777C209.836 172.172 209.848 171.535 210.03 170.937C210.411 169.743 211.107 168.674 212.046 167.844C216.023 163.973 221.806 162.569 227.342 162.191C229.048 162.017 230.771 162.092 232.457 162.414C234.126 162.785 236.712 162.649 239.724 165.946" fill="#263238"/>
<path d="M216.994 178.489C216.932 178.668 215.924 178.439 214.681 178.489C213.438 178.538 212.43 178.767 212.362 178.6C212.294 178.433 213.283 177.87 214.663 177.845C216.042 177.821 217.062 178.334 216.994 178.489Z" fill="#263238"/>
<path d="M228.295 178.619C228.233 178.792 227.256 178.575 226.056 178.52C224.856 178.464 223.867 178.569 223.817 178.39C223.768 178.21 224.776 177.808 226.087 177.876C227.398 177.944 228.357 178.458 228.295 178.619Z" fill="#263238"/>
<path d="M243.083 175.303C242.99 175.248 243.293 174.685 243.509 173.72C243.798 172.47 243.727 171.165 243.305 169.953C242.856 168.752 242.081 167.701 241.066 166.917C240.281 166.298 239.687 166.069 239.724 165.97C239.761 165.871 240.411 165.97 241.326 166.545C242.524 167.286 243.436 168.411 243.912 169.737C244.388 171.062 244.401 172.51 243.949 173.844C243.596 174.852 243.138 175.347 243.083 175.303Z" fill="#455A64"/>
<path d="M250.195 241.414L254.599 268.832L219.141 282.074L224.88 293.912L262.194 282.254C265.133 281.329 267.634 279.364 269.228 276.727C270.822 274.09 271.4 270.962 270.853 267.929L266.084 241.427L250.195 241.414Z" fill="#FFBE9D"/>
<path d="M219.357 281.994C219.357 281.994 212.757 279.891 209.59 279.081C208.353 278.765 203.078 281.555 199.429 283.868C199.429 283.868 194.406 286.849 194.815 287.765C195.26 288.779 197.115 288.569 200.066 287.183C200.066 287.183 199.033 290.17 201.061 290.109C201.061 290.109 200.053 293.343 201.952 293.677C203.851 294.011 204.296 289.886 205.966 289.663C207.636 289.441 211.1 289.218 211.1 289.218C211.1 289.218 213.976 293.987 216.208 294.321C218.441 294.655 225.09 293.9 225.09 293.9L219.357 281.994Z" fill="#FFBE9D"/>
<path d="M205.997 283.305C204.389 284.573 202.652 285.667 200.814 286.571C201.578 285.9 202.407 285.307 203.288 284.802C204.137 284.211 205.045 283.709 205.997 283.305V283.305Z" fill="#EB996E"/>
<path d="M206.566 285.142C205.603 285.762 204.584 286.292 203.523 286.725C202.508 287.252 201.446 287.682 200.351 288.012C201.31 287.388 202.327 286.858 203.387 286.429C204.405 285.902 205.469 285.471 206.566 285.142V285.142Z" fill="#EB996E"/>
<path d="M205.539 289.583C204.86 289.836 204.148 289.988 203.424 290.034C202.71 290.196 201.977 290.252 201.247 290.201C201.925 289.944 202.638 289.79 203.362 289.744C204.076 289.583 204.81 289.528 205.539 289.583Z" fill="#EB996E"/>
</svg>
