<svg width="190" height="65" viewBox="0 0 190 65" fill="none" xmlns="http://www.w3.org/2000/svg">
<path d="M65.9817 46.09V45.5978C65.9817 43.7385 66.2473 42.0275 66.7786 40.465C67.3098 38.8869 68.0833 37.5197 69.0989 36.3635C70.1145 35.2072 71.3645 34.3088 72.8489 33.6682C74.3333 33.0119 76.0364 32.6838 77.9583 32.6838C79.8801 32.6838 81.5911 33.0119 83.0911 33.6682C84.5911 34.3088 85.8489 35.2072 86.8645 36.3635C87.8958 37.5197 88.677 38.8869 89.2083 40.465C89.7395 42.0275 90.0051 43.7385 90.0051 45.5978V46.09C90.0051 47.9338 89.7395 49.6447 89.2083 51.2228C88.677 52.7853 87.8958 54.1525 86.8645 55.3244C85.8489 56.4807 84.5989 57.3791 83.1145 58.0197C81.6301 58.6603 79.927 58.9807 78.0051 58.9807C76.0833 58.9807 74.3723 58.6603 72.8723 58.0197C71.3879 57.3791 70.1301 56.4807 69.0989 55.3244C68.0833 54.1525 67.3098 52.7853 66.7786 51.2228C66.2473 49.6447 65.9817 47.9338 65.9817 46.09ZM72.7317 45.5978V46.09C72.7317 47.1525 72.8254 48.1447 73.0129 49.0666C73.2004 49.9885 73.4973 50.801 73.9036 51.5041C74.3254 52.1916 74.8723 52.7307 75.5442 53.1213C76.2161 53.5119 77.0364 53.7072 78.0051 53.7072C78.9426 53.7072 79.7473 53.5119 80.4192 53.1213C81.0911 52.7307 81.6301 52.1916 82.0364 51.5041C82.4426 50.801 82.7395 49.9885 82.927 49.0666C83.1301 48.1447 83.2317 47.1525 83.2317 46.09V45.5978C83.2317 44.5666 83.1301 43.5978 82.927 42.6916C82.7395 41.7697 82.4348 40.9572 82.0129 40.2541C81.6067 39.5353 81.0676 38.9728 80.3958 38.5666C79.7239 38.1603 78.9114 37.9572 77.9583 37.9572C77.0051 37.9572 76.1926 38.1603 75.5208 38.5666C74.8645 38.9728 74.3254 39.5353 73.9036 40.2541C73.4973 40.9572 73.2004 41.7697 73.0129 42.6916C72.8254 43.5978 72.7317 44.5666 72.7317 45.5978ZM101.279 22.5119V58.5119H94.5051V22.5119H101.279ZM113.982 22.5119V58.5119H107.208V22.5119H113.982ZM134.56 52.4416V33.1525H141.31V58.5119H134.958L134.56 52.4416ZM135.31 47.2385L137.302 47.1916C137.302 48.8791 137.107 50.4494 136.716 51.9025C136.325 53.34 135.74 54.59 134.958 55.6525C134.177 56.6994 133.193 57.5197 132.005 58.1135C130.818 58.6916 129.419 58.9807 127.81 58.9807C126.575 58.9807 125.435 58.8088 124.388 58.465C123.357 58.1057 122.466 57.551 121.716 56.801C120.982 56.0353 120.404 55.0588 119.982 53.8713C119.575 52.6682 119.372 51.2228 119.372 49.5353V33.1525H126.122V49.5822C126.122 50.3322 126.208 50.965 126.38 51.4807C126.568 51.9963 126.825 52.4182 127.154 52.7463C127.482 53.0744 127.865 53.3088 128.302 53.4494C128.755 53.59 129.255 53.6603 129.802 53.6603C131.193 53.6603 132.286 53.3791 133.083 52.8166C133.896 52.2541 134.466 51.4885 134.794 50.5197C135.138 49.5353 135.31 48.4416 135.31 47.2385ZM158.888 33.1525V37.9338H144.122V33.1525H158.888ZM147.779 26.8947H154.529V50.8713C154.529 51.6057 154.622 52.1682 154.81 52.5588C155.013 52.9494 155.31 53.2228 155.7 53.3791C156.091 53.5197 156.583 53.59 157.177 53.59C157.599 53.59 157.974 53.5744 158.302 53.5432C158.646 53.4963 158.935 53.4494 159.169 53.4025L159.193 58.3713C158.615 58.5588 157.99 58.7072 157.318 58.8166C156.646 58.926 155.904 58.9807 155.091 58.9807C153.607 58.9807 152.31 58.7385 151.2 58.2541C150.107 57.7541 149.263 56.9572 148.669 55.8635C148.075 54.7697 147.779 53.3322 147.779 51.551V26.8947ZM174.404 58.9807C172.435 58.9807 170.669 58.6682 169.107 58.0432C167.544 57.4025 166.216 56.5197 165.122 55.3947C164.044 54.2697 163.216 52.965 162.638 51.4807C162.06 49.9807 161.771 48.3869 161.771 46.6994V45.7619C161.771 43.84 162.044 42.0822 162.591 40.4885C163.138 38.8947 163.919 37.5119 164.935 36.34C165.966 35.1682 167.216 34.2697 168.685 33.6447C170.154 33.0041 171.81 32.6838 173.654 32.6838C175.45 32.6838 177.044 32.9807 178.435 33.5744C179.825 34.1682 180.99 35.0119 181.927 36.1057C182.88 37.1994 183.599 38.5119 184.083 40.0432C184.568 41.5588 184.81 43.2463 184.81 45.1057V47.9182H164.654V43.4182H178.177V42.9025C178.177 41.965 178.005 41.1291 177.661 40.3947C177.333 39.6447 176.833 39.051 176.161 38.6135C175.49 38.176 174.63 37.9572 173.583 37.9572C172.693 37.9572 171.927 38.1525 171.286 38.5432C170.646 38.9338 170.122 39.4807 169.716 40.1838C169.325 40.8869 169.029 41.715 168.825 42.6682C168.638 43.6057 168.544 44.6369 168.544 45.7619V46.6994C168.544 47.715 168.685 48.6525 168.966 49.5119C169.263 50.3713 169.677 51.1135 170.208 51.7385C170.755 52.3635 171.411 52.8478 172.177 53.1916C172.958 53.5353 173.841 53.7072 174.825 53.7072C176.044 53.7072 177.177 53.4728 178.224 53.0041C179.286 52.5197 180.2 51.7932 180.966 50.8244L184.247 54.3869C183.716 55.1525 182.99 55.8869 182.068 56.59C181.161 57.2932 180.068 57.8713 178.786 58.3244C177.505 58.7619 176.044 58.9807 174.404 58.9807Z" fill="black"/>
<ellipse cx="34.2826" cy="39.6607" rx="26.8478" ry="25.1488" fill="#3E00FF"/>
<path d="M39.9865 48.0346C39.9865 47.4252 39.8927 46.8784 39.7052 46.394C39.5333 45.894 39.2052 45.4409 38.7208 45.0346C38.2365 44.6127 37.5568 44.1987 36.6818 43.7924C35.8068 43.3862 34.674 42.9643 33.2833 42.5268C31.7365 42.0268 30.2677 41.4643 28.8771 40.8393C27.5021 40.2143 26.2833 39.4877 25.2208 38.6596C24.174 37.8159 23.3458 36.8393 22.7365 35.7299C22.1427 34.6205 21.8458 33.3315 21.8458 31.8627C21.8458 30.4409 22.1583 29.1518 22.7833 27.9955C23.4083 26.8237 24.2833 25.8237 25.4083 24.9955C26.5333 24.1518 27.8615 23.5034 29.3927 23.0502C30.9396 22.5971 32.6349 22.3705 34.4786 22.3705C36.9943 22.3705 39.1896 22.8237 41.0646 23.7299C42.9396 24.6362 44.3927 25.8784 45.424 27.4565C46.4708 29.0346 46.9943 30.8393 46.9943 32.8705H40.0099C40.0099 31.8705 39.799 30.9955 39.3771 30.2455C38.9708 29.4799 38.3458 28.8784 37.5021 28.4409C36.674 28.0034 35.6271 27.7846 34.3615 27.7846C33.1427 27.7846 32.1271 27.9721 31.3146 28.3471C30.5021 28.7065 29.8927 29.1987 29.4865 29.8237C29.0802 30.433 28.8771 31.1205 28.8771 31.8862C28.8771 32.4643 29.0177 32.9877 29.299 33.4565C29.5958 33.9252 30.0333 34.3627 30.6115 34.769C31.1896 35.1752 31.9005 35.558 32.7443 35.9174C33.588 36.2768 34.5646 36.6284 35.674 36.9721C37.5333 37.5346 39.1661 38.1674 40.5724 38.8705C41.9943 39.5737 43.1818 40.3627 44.1349 41.2377C45.088 42.1127 45.8068 43.1049 46.2911 44.2143C46.7755 45.3237 47.0177 46.5815 47.0177 47.9877C47.0177 49.4721 46.7286 50.8002 46.1505 51.9721C45.5724 53.144 44.7365 54.1362 43.6427 54.9487C42.549 55.7612 41.2443 56.3784 39.7286 56.8002C38.213 57.2221 36.5177 57.433 34.6427 57.433C32.9552 57.433 31.2911 57.2143 29.6505 56.7768C28.0099 56.3237 26.5177 55.644 25.174 54.7377C23.8458 53.8315 22.7833 52.6752 21.9865 51.269C21.1896 49.8627 20.7911 48.1987 20.7911 46.2768H27.8458C27.8458 47.3393 28.0099 48.2377 28.338 48.9721C28.6661 49.7065 29.1271 50.3002 29.7208 50.7534C30.3302 51.2065 31.049 51.5346 31.8771 51.7377C32.7208 51.9409 33.6427 52.0424 34.6427 52.0424C35.8615 52.0424 36.8615 51.8705 37.6427 51.5268C38.4396 51.183 39.0255 50.7065 39.4005 50.0971C39.7911 49.4877 39.9865 48.8002 39.9865 48.0346Z" fill="white"/>
<ellipse cx="11.9783" cy="17.6071" rx="11.9783" ry="11.6071" fill="black"/>
</svg>
