<svg xmlns="http://www.w3.org/2000/svg" viewBox="0 0 500 500"><g id="freepik--glasses-3--inject-88"><g id="freepik--Glasses--inject-88"><path d="M425,359.3l-62.45-36a20.92,20.92,0,0,0-31.37,18.11v2.23a3,3,0,0,0,6,0v-2.23a14.92,14.92,0,0,1,22.38-12.91l62.44,36a3,3,0,1,0,3-5.2Z" style="fill:#37474f"></path><path d="M355.22,389.05a10.34,10.34,0,0,0-4.85-1c-4.8,0-11.42,2.14-18.77,6.73-11.77,7.37-26.12,19.85-27.74,42.27-1.37,18.9,3.17,31.05,8.65,34.41l-3.82-2.19c-5.59-3.16-10.28-15.39-8.89-34.56,1.62-22.41,16-34.9,27.74-42.26,7.35-4.6,14-6.74,18.77-6.74a10.17,10.17,0,0,1,5.07,1.14Z" style="fill:#511AFF"></path><path d="M309.11,417.85l-4.05-2.34a49.36,49.36,0,0,0-5.26,19.18c-1.39,19.17,3.3,31.4,8.89,34.56l3.82,2.19c-5.48-3.36-10-15.51-8.65-34.41A49.53,49.53,0,0,1,309.11,417.85Z" style="opacity:0.15"></path><path d="M355.22,389.05a10.34,10.34,0,0,0-4.85-1c-4.8,0-11.42,2.14-18.77,6.73-7.87,4.93-16.9,12.14-22.49,23.09l-4.05-2.35c5.59-10.94,14.61-18.15,22.48-23.07,7.35-4.6,14-6.74,18.77-6.74a10.17,10.17,0,0,1,5.07,1.14Z" style="fill:#fff;opacity:0.4"></path><path d="M423.55,350.56a10.91,10.91,0,0,0-5.83-1.5c-4.87,0-10.55,2.32-15.72,5.06-12.74,6.75-23.29,18.33-26,26.62-3.1,9.53.17,27.75,10.64,35.38q.75.56,1.53,1l-3.54-2,0,0-.15-.09a19.94,19.94,0,0,1-1.87-1.22c-10.47-7.63-13.74-25.85-10.64-35.38,2.69-8.28,13.25-19.87,26-26.62,5.17-2.74,10.85-5.06,15.72-5.06a10.92,10.92,0,0,1,5.73,1.46l3.87,2.2A2.82,2.82,0,0,1,423.55,350.56Z" style="fill:#511AFF"></path><path d="M376,380.74a22.54,22.54,0,0,1,1.36-3.22l-4.06-2.35A23.13,23.13,0,0,0,372,378.4c-3.1,9.53.17,27.75,10.64,35.38a19.94,19.94,0,0,0,1.87,1.22l.15.09,0,0,3.54,2q-.78-.47-1.53-1C376.18,408.49,372.91,390.27,376,380.74Z" style="opacity:0.15"></path><path d="M357,402.94a1,1,0,0,1-.5-1.87l1.48-.85v-1a6.59,6.59,0,0,1,2.83-5.32l7.56-4.36a2.49,2.49,0,0,1,2.52-.13,3,3,0,0,1,1.3,2.62l.49-.28a1,1,0,0,1,1,1.73l-3.48,2v-3.33c0-.66-.2-.95-.31-1s-.3,0-.52.12l-7.56,4.37A4.6,4.6,0,0,0,360,399.2v2.17l-2.48,1.43A1,1,0,0,1,357,402.94Z" style="fill:#37474f"></path><path d="M352.46,409.06a104.31,104.31,0,0,1-9.92,27.63c-8.31,15.64-17.43,24.7-23,28.46a5.1,5.1,0,0,1-7.14-1.47,5.15,5.15,0,0,0,3.08-.87c5.58-3.75,14.7-12.81,23-28.46a104.19,104.19,0,0,0,9.92-27.63c1.4-7,1.38-11.39,1.1-13.64v0l.87,0c1.83,0,2.68.45,2.79.65C353.6,394.54,354.43,399.19,352.46,409.06Z" style="fill:#511AFF"></path><path d="M352.46,409.06a104.31,104.31,0,0,1-9.92,27.63c-8.31,15.64-17.43,24.7-23,28.46a5.1,5.1,0,0,1-7.14-1.47,5.15,5.15,0,0,0,3.08-.87c5.58-3.75,14.7-12.81,23-28.46a104.19,104.19,0,0,0,9.92-27.63c1.4-7,1.38-11.39,1.1-13.64v0l.87,0c1.83,0,2.68.45,2.79.65C353.6,394.54,354.43,399.19,352.46,409.06Z" style="opacity:0.15"></path><path d="M416.06,407.44c-3,4.76-9.48,8.08-15.86,8.08a17.65,17.65,0,0,1-10.61-3.45,14.18,14.18,0,0,1-1.13-.92c.29.25.59.49.89.72a17.74,17.74,0,0,0,6.79,1.31c6.38,0,12.9-3.32,15.86-8.07,5.15-8.3,10.08-25.2,8.7-42.7-.34-4.23-1.2-6.78-2.24-8.33,2.16.11,5.55,1.16,6.3,10.66C426.14,382.25,421.22,399.15,416.06,407.44Z" style="fill:#511AFF"></path><path d="M416.06,407.44c-3,4.76-9.48,8.08-15.86,8.08a17.65,17.65,0,0,1-10.61-3.45,14.18,14.18,0,0,1-1.13-.92c.29.25.59.49.89.72a17.74,17.74,0,0,0,6.79,1.31c6.38,0,12.9-3.32,15.86-8.07,5.15-8.3,10.08-25.2,8.7-42.7-.34-4.23-1.2-6.78-2.24-8.33,2.16.11,5.55,1.16,6.3,10.66C426.14,382.25,421.22,399.15,416.06,407.44Z" style="opacity:0.15"></path><path d="M350.37,393c1.83,0,2.68.45,2.79.65.44.86,1.27,5.51-.7,15.38a103.84,103.84,0,0,1-9.92,27.63c-8.31,15.64-17.43,24.7-23,28.46a5.1,5.1,0,0,1-7.47-2.07c-2.19-4.58-4.13-12.93-3.21-25.69C310,421.53,318.31,409,334.26,399c6.07-3.79,11.95-6,16.11-6Zm0-5c-4.8,0-11.42,2.14-18.76,6.73-11.78,7.37-26.13,19.85-27.75,42.27-1.43,19.8,3.61,32.19,9.44,34.83a4.09,4.09,0,0,0,1.72.34c6.81,0,21-12.6,31.94-33.17,10.47-19.71,13.73-41.71,10.63-47.66-1.14-2.19-3.69-3.34-7.22-3.34Z" style="fill:#511AFF"></path><path d="M417.72,354.06h0c2,0,6.2,0,7,10.68,1.38,17.51-3.54,34.41-8.7,42.7-3,4.76-9.48,8.08-15.85,8.08a17.66,17.66,0,0,1-10.61-3.44c-8.69-6.33-11.31-22.19-8.83-29.79,2.17-6.69,11.59-17.41,23.57-23.75,5.62-3,10.12-4.48,13.38-4.48Zm0-5c-4.87,0-10.54,2.32-15.72,5.06-12.74,6.75-23.29,18.34-26,26.62-3.1,9.53.17,27.75,10.64,35.38a22.81,22.81,0,0,0,13.56,4.4c8.38,0,16.33-4.38,20.1-10.43,5.82-9.38,10.87-27.59,9.43-45.74-.9-11.51-5.81-15.29-12-15.29Z" style="fill:#511AFF"></path><path d="M417.72,349.06a10.91,10.91,0,0,1,5.83,1.5,2.82,2.82,0,0,0-.29-.18l-3.87-2.2a10.92,10.92,0,0,0-5.73-1.46c-4.87,0-10.55,2.32-15.72,5.06-11.15,5.91-20.64,15.53-24.63,23.39l4.06,2.35c4-7.87,13.47-17.49,24.63-23.4C407.17,351.38,412.85,349.06,417.72,349.06Z" style="fill:#fff;opacity:0.4"></path><path d="M302.62,429.39l-62.44-36a20.92,20.92,0,0,0-31.37,18.11v2.23a3,3,0,0,0,6,0v-2.23a14.92,14.92,0,0,1,22.37-12.91l62.45,36a3,3,0,0,0,3-5.2Z" style="fill:#37474f"></path><path d="M417.72,354.06h0c2,0,6.2,0,7,10.68,1.38,17.51-3.54,34.41-8.7,42.7-3,4.76-9.48,8.08-15.85,8.08a17.66,17.66,0,0,1-10.61-3.44c-8.69-6.33-11.31-22.19-8.83-29.79,2.17-6.69,11.59-17.41,23.57-23.75,5.62-3,10.12-4.48,13.38-4.48Z" style="fill:#455a64;opacity:0.8"></path><path d="M350.37,393c1.83,0,2.68.45,2.79.65.44.86,1.27,5.51-.7,15.38a103.84,103.84,0,0,1-9.92,27.63c-8.31,15.64-17.43,24.7-23,28.46a5.1,5.1,0,0,1-7.47-2.07c-2.19-4.58-4.13-12.93-3.21-25.69C310,421.53,318.31,409,334.26,399c6.07-3.79,11.95-6,16.11-6Z" style="fill:#455a64;opacity:0.8"></path><path d="M328.77,395.09a1,1,0,0,1-.55-1.84,637.28,637.28,0,0,1,70.51-40.7,1,1,0,1,1,.88,1.79,635.78,635.78,0,0,0-70.28,40.58A1,1,0,0,1,328.77,395.09Z" style="fill:#37474f"></path></g></g><g id="freepik--glasses-2--inject-88"><g id="freepik--glasses--inject-88"><path d="M224.89,309.22l-4.26-2.46-.33-7.86-50.42-29.11c-6.87-4-13.67-4.12-18.91-1.16l3.72-2.14c5.28-3.16,12.22-3.1,19.24.95l50.43,29.11Z" style="fill:#511AFF"></path><path d="M224.89,309.22l-4.26-2.46-.33-7.86-50.42-29.11c-6.87-4-13.67-4.12-18.91-1.16l3.72-2.14c5.28-3.16,12.22-3.1,19.24.95l50.43,29.11Z" style="fill:#fff;opacity:0.4"></path><path d="M159.13,277.58a8.27,8.27,0,0,0-1.53,3.64l-.41,2.3a7.64,7.64,0,0,1-1.31,3.13,7.45,7.45,0,0,1-2.4,2.14l-3.95,2.29a7.53,7.53,0,0,0,3.61-5.21l.41-2.31C154.17,280.05,156.37,277.9,159.13,277.58Z" style="fill:#511AFF"></path><path d="M159.13,277.58a8.27,8.27,0,0,0-1.53,3.64l-.41,2.3a7.64,7.64,0,0,1-1.31,3.13,7.45,7.45,0,0,1-2.4,2.14l-3.95,2.29a7.53,7.53,0,0,0,3.61-5.21l.41-2.31C154.17,280.05,156.37,277.9,159.13,277.58Z" style="opacity:0.15"></path><path d="M220.83,311.57,164,278.72a7.79,7.79,0,0,0-4.83-1.14c-2.76.32-5,2.47-5.58,6l-.41,2.31a7.53,7.53,0,0,1-3.61,5.21l-.15.09a7.54,7.54,0,0,1-7.54,0,2.13,2.13,0,0,1-1-2.22l1.09-6.1c1.18-6.6,4.41-11.41,8.78-14l.29-.17c5.24-3,12-2.8,18.91,1.16L220.3,298.9l.33,7.86Z" style="fill:#511AFF"></path><path d="M152.37,288.11a7.59,7.59,0,0,1-2.84,3l3.95-2.29a7.45,7.45,0,0,0,2.4-2.14,7.77,7.77,0,0,0,.53-.87Z" style="opacity:0.15"></path><path d="M352.83,235.36l-4.26-2.46-.33-7.86-50.42-29.11c-6.87-4-13.67-4.12-18.91-1.16l3.72-2.14c5.28-3.16,12.22-3.1,19.24,1l50.43,29.11Z" style="fill:#511AFF"></path><path d="M352.83,235.36l-4.26-2.46-.33-7.86-50.42-29.11c-6.87-4-13.67-4.12-18.91-1.16l3.72-2.14c5.28-3.16,12.22-3.1,19.24,1l50.43,29.11Z" style="fill:#fff;opacity:0.4"></path><path d="M287.07,203.72a8.27,8.27,0,0,0-1.53,3.64l-.41,2.3a7.64,7.64,0,0,1-1.31,3.13,7.45,7.45,0,0,1-2.4,2.14l-3.95,2.29a7.53,7.53,0,0,0,3.61-5.21l.41-2.31C282.11,206.19,284.31,204,287.07,203.72Z" style="fill:#511AFF"></path><path d="M287.07,203.72a8.27,8.27,0,0,0-1.53,3.64l-.41,2.3a7.64,7.64,0,0,1-1.31,3.13,7.45,7.45,0,0,1-2.4,2.14l-3.95,2.29a7.53,7.53,0,0,0,3.61-5.21l.41-2.31C282.11,206.19,284.31,204,287.07,203.72Z" style="opacity:0.15"></path><path d="M348.77,237.71,291.9,204.86a7.79,7.79,0,0,0-4.83-1.14c-2.76.32-5,2.47-5.58,6l-.41,2.31a7.53,7.53,0,0,1-3.61,5.21l-.15.09a7.54,7.54,0,0,1-7.54,0,2.13,2.13,0,0,1-1-2.22l1.09-6.1c1.18-6.6,4.41-11.41,8.78-14l.29-.17c5.24-3,12-2.8,18.91,1.16L348.24,225l.33,7.86Z" style="fill:#511AFF"></path><path d="M280.31,214.25a7.59,7.59,0,0,1-2.84,3l3.95-2.29a7.45,7.45,0,0,0,2.4-2.14,7,7,0,0,0,.53-.87Z" style="opacity:0.15"></path><path d="M356.36,225c-2.19.87-4.66,1.91-7.31,3.12-11.8,5.38-27.22,13.81-36.51,22.18-11.64,10.51-15.74,17.15-22.19,20.88s-10.54,1.8-22.18,4.73c-9.28,2.36-24.7,11.73-36.5,20-2.66,1.86-5.14,3.67-7.31,5.32a30.33,30.33,0,0,0,.54,12.68s2.52-2.24,3.79,2.69,2.07,15.31,4.51,19.92a13.15,13.15,0,0,0,4.69,5.37l.06,0h0a9.6,9.6,0,0,0,2.33,1h0a13.84,13.84,0,0,0,1.37.27h0a13.67,13.67,0,0,0,4.09-.13c.23,0,.46-.08.69-.14s.72-.16,1.09-.26.75-.22,1.14-.34a28.42,28.42,0,0,0,3.62-1.45c.5-.22,1-.48,1.55-.75s1.27-.68,1.94-1.07c15-8.65,21.23-20.56,24.93-31.26s2.72-22.2,9.63-26.19a7,7,0,0,1,.66-.34,4.79,4.79,0,0,1,.61-.24c5.55-1.78,4.91,9.65,8.37,15.65a15,15,0,0,0,5.26,5.7,12.17,12.17,0,0,0,1.25.63,5.4,5.4,0,0,0,.67.25c.23.08.46.15.7.21s.42.11.64.15a.52.52,0,0,0,.21,0l.48.08a4.87,4.87,0,0,0,.55.06l.38,0a17.81,17.81,0,0,0,6.39-.88l.59-.19a41.54,41.54,0,0,0,7.81-3.62c15-8.66,20.15-21.15,22.59-28.58s3.25-18.75,4.52-25.14,3.79-7.07,3.79-7.07C357.62,230,356.36,225,356.36,225Zm-79.54,77a47.61,47.61,0,0,1-5.17,14.91h0a41.85,41.85,0,0,1-16.32,16.29c-8.13,4.59-12.88,3.42-15.73.47a6.47,6.47,0,0,1-.5-.56c-.16-.19-.31-.38-.46-.58a5.72,5.72,0,0,1-.39-.57c-.11-.17-.22-.35-.32-.53a3.62,3.62,0,0,1-.24-.43,3.72,3.72,0,0,1-.21-.39c-.11-.22-.22-.45-.32-.67h0a19,19,0,0,1-.79-2s0,0,0,0c-.14-.43-.27-.86-.39-1.27-.21-.75-.38-1.47-.52-2.11l-.09-.41-.09-.39c-1.17-5.29-2.57-16.21,0-20.35s9.38-10.85,20.54-16.08c.38-.2.78-.38,1.19-.56a48.71,48.71,0,0,1,5.1-1.95c.67-.22,1.33-.41,2-.59a35.76,35.76,0,0,1,5-1c.53-.07,1-.12,1.52-.15a15.62,15.62,0,0,1,1.65-.05h.33l.6,0a5.1,5.1,0,0,1,3.35,1.18C278.72,286.51,278.07,294.63,276.82,302Zm68.65-42c-.91,5.18-2.87,16.36-11.22,25.54a37.77,37.77,0,0,1-8.87,7.18c-9.45,5.6-14.81,4.41-17.86,1.28l0-.06q-.18-.18-.33-.36c-.13-.14-.25-.29-.36-.43l-.18-.23c-.16-.22-.32-.45-.46-.68s-.33-.54-.48-.83c-.08-.13-.15-.27-.22-.41l-.11-.24c-.06-.12-.11-.24-.16-.36s-.09-.19-.12-.28a21.06,21.06,0,0,1-1.16-3.79c-1.24-5.93-1.91-13.28.33-18.23s11-14,19.5-20q2.92-2.07,5.48-3.58l.65-.38.7-.4c.65-.37,1.29-.71,1.9-1l.69-.35.9-.43c.51-.25,1-.47,1.49-.67,1-.42,1.9-.77,2.75-1l.65-.2.17,0c.14,0,.29-.09.44-.12s.45-.12.66-.17.54-.12.79-.17a11.51,11.51,0,0,1,1.3-.18l.23,0h0a6.11,6.11,0,0,1,3,.33C348,240.85,346.62,253.41,345.47,260Z"></path><path d="M305.25,302.35h0l-3.9-2.25a14.88,14.88,0,0,1-5.42-5.81c-2.22-3.83-2.75-9.9-4.31-13.3,5.55-1.78,4.91,9.65,8.37,15.65A15,15,0,0,0,305.25,302.35Z"></path><path d="M233.2,336.53c-2.44-4.61-3.25-15-4.51-19.92s-3.79-2.69-3.79-2.69l-.45-.26c.06.19.12.39.18.61,1.26,4.93,2.07,15.31,4.51,19.92a13,13,0,0,0,4.76,5.4l4,2.31A13.15,13.15,0,0,1,233.2,336.53Z"></path><path d="M224.36,301.24l-4.06-2.34a30.39,30.39,0,0,0,.53,12.67l3.62,2.09.45.26A30.33,30.33,0,0,1,224.36,301.24Z"></path><path d="M352.3,222.69c-2.19.86-4.66,1.91-7.32,3.12-11.79,5.37-27.21,13.8-36.5,22.17-11.64,10.51-15.75,17.16-22.19,20.88s-10.54,1.81-22.18,4.74c-9.28,2.35-24.7,11.73-36.5,20-2.66,1.85-5.14,3.67-7.31,5.32l4.06,2.34c2.17-1.65,4.65-3.46,7.31-5.32,11.8-8.25,27.22-17.62,36.5-20,11.64-2.93,15.73-1,22.18-4.73s10.55-10.37,22.19-20.88c9.29-8.37,24.71-16.8,36.51-22.18,2.65-1.21,5.12-2.25,7.31-3.12Z" style="fill:#455a64"></path><path d="M356.36,225c-2.19.87-4.66,1.91-7.31,3.12-11.8,5.38-27.22,13.81-36.51,22.18-11.64,10.51-15.74,17.15-22.19,20.88s-10.54,1.8-22.18,4.73c-9.28,2.36-24.7,11.73-36.5,20-2.66,1.86-5.14,3.67-7.31,5.32a30.33,30.33,0,0,0,.54,12.68s2.52-2.24,3.79,2.69,2.07,15.31,4.51,19.92a13.15,13.15,0,0,0,4.69,5.37l.06,0a9.06,9.06,0,0,0,2.33,1h0a13.84,13.84,0,0,0,1.37.27h0a13.67,13.67,0,0,0,4.09-.13c.23,0,.46-.08.69-.14s.72-.16,1.09-.26.75-.22,1.14-.34a28.42,28.42,0,0,0,3.62-1.45c.5-.22,1-.48,1.55-.75s1.27-.68,1.94-1.07c15-8.65,21.23-20.56,24.93-31.26s2.72-22.2,9.63-26.19a7,7,0,0,1,.66-.34,4.79,4.79,0,0,1,.61-.24c5.55-1.78,4.91,9.65,8.37,15.65a15,15,0,0,0,5.26,5.7h0a10.38,10.38,0,0,0,1.25.62,5.4,5.4,0,0,0,.67.25c.23.08.46.15.7.21s.42.11.64.15a.52.52,0,0,0,.21,0l.48.08a4.87,4.87,0,0,0,.55.06l.38,0a17.81,17.81,0,0,0,6.39-.88l.59-.19a41.54,41.54,0,0,0,7.81-3.62c15-8.66,20.15-21.15,22.59-28.58s3.25-18.75,4.52-25.14,3.79-7.07,3.79-7.07C357.62,230,356.36,225,356.36,225Zm-79.54,77a47.61,47.61,0,0,1-5.17,14.91h0a41.85,41.85,0,0,1-16.32,16.29c-8.13,4.59-12.88,3.42-15.73.47a6.47,6.47,0,0,1-.5-.56,6.15,6.15,0,0,1-.46-.58,5.72,5.72,0,0,1-.39-.57c-.11-.17-.22-.35-.32-.53a3.62,3.62,0,0,1-.24-.43,3.72,3.72,0,0,1-.21-.39c-.11-.22-.22-.45-.32-.67h0a19,19,0,0,1-.79-2s0,0,0,0c-.14-.43-.27-.86-.39-1.27-.21-.75-.38-1.47-.52-2.11l-.09-.41-.09-.39c-1.17-5.29-2.57-16.21,0-20.35s9.38-10.85,20.54-16.08c.38-.2.78-.38,1.19-.56a48.71,48.71,0,0,1,5.1-1.95c.67-.22,1.33-.41,2-.59a35.76,35.76,0,0,1,5-1c.53-.07,1-.12,1.52-.15a15.62,15.62,0,0,1,1.65-.05h.33a3.86,3.86,0,0,1,.6,0,5.1,5.1,0,0,1,3.35,1.18C278.72,286.51,278.07,294.63,276.82,302Zm68.65-42c-.91,5.18-2.87,16.36-11.22,25.54a37.77,37.77,0,0,1-8.87,7.18c-9.45,5.6-14.81,4.41-17.86,1.28l0-.06q-.18-.18-.33-.36c-.13-.14-.25-.29-.36-.43l-.18-.23c-.16-.22-.32-.45-.46-.68s-.33-.54-.48-.83c-.08-.13-.15-.27-.22-.41l-.11-.24c-.06-.12-.11-.24-.16-.36s-.09-.19-.12-.28a21.06,21.06,0,0,1-1.16-3.79c-1.24-5.93-1.91-13.28.33-18.23s11-14,19.5-20q2.92-2.07,5.48-3.58l.65-.38.7-.4c.65-.37,1.29-.71,1.9-1l.69-.35.9-.43c.51-.25,1-.47,1.49-.67,1-.42,1.9-.77,2.75-1l.65-.2.17,0c.14,0,.29-.09.44-.12s.45-.12.66-.17.54-.12.79-.17a11.51,11.51,0,0,1,1.3-.18l.23,0a6.11,6.11,0,0,1,3,.33C348,240.85,346.62,253.41,345.47,260Z" style="fill:#37474f"></path><path d="M276.82,302a47.61,47.61,0,0,1-5.17,14.91h0a41.85,41.85,0,0,1-16.32,16.29c-8.13,4.59-12.88,3.42-15.73.47,2.81.67,6.57.06,11.67-2.82a41.72,41.72,0,0,0,16.32-16.29h0a47.61,47.61,0,0,0,5.17-14.91c1.09-6.44,1.73-13.45.37-16.69a5.1,5.1,0,0,1,3.35,1.18C278.72,286.51,278.07,294.63,276.82,302Z"></path><path d="M345.47,260c-.91,5.18-2.87,16.36-11.22,25.54a37.77,37.77,0,0,1-8.87,7.18c-9.45,5.6-14.81,4.41-17.86,1.28,3.17.79,7.6,0,13.8-3.62a38,38,0,0,0,8.87-7.19c8.35-9.17,10.31-20.36,11.22-25.54s2-14.27,1.11-18.33a6.11,6.11,0,0,1,3,.33C348,240.85,346.62,253.41,345.47,260Z"></path><path d="M276.82,302a47.61,47.61,0,0,1-5.17,14.91h0a41.85,41.85,0,0,1-16.32,16.29c-8.13,4.59-12.88,3.42-15.73.47a6.47,6.47,0,0,1-.5-.56,6.15,6.15,0,0,1-.46-.58,5.72,5.72,0,0,1-.39-.57c-.11-.17-.22-.35-.32-.53a3.62,3.62,0,0,1-.24-.43,3.72,3.72,0,0,1-.21-.39c-.11-.22-.22-.45-.32-.67h0a19,19,0,0,1-.79-2s0,0,0,0c-.14-.43-.27-.86-.39-1.27-.21-.75-.38-1.47-.52-2.11l-.09-.41-.09-.39c-1.17-5.29-2.57-16.21,0-20.35s9.38-10.85,20.54-16.08c.38-.2.78-.38,1.19-.56a48.71,48.71,0,0,1,5.1-1.95c.67-.22,1.33-.41,2-.59a35.76,35.76,0,0,1,5-1c.53-.07,1-.12,1.52-.15a15.62,15.62,0,0,1,1.65-.05h.33a3.86,3.86,0,0,1,.6,0,5.1,5.1,0,0,1,3.35,1.18C278.72,286.51,278.07,294.63,276.82,302Z" style="fill:#511AFF;opacity:0.85"></path><path d="M345.47,260c-.91,5.18-2.87,16.36-11.22,25.54a37.77,37.77,0,0,1-8.87,7.18c-9.45,5.6-14.81,4.41-17.86,1.28l0-.06q-.18-.18-.33-.36c-.13-.14-.25-.29-.36-.43l-.18-.23c-.16-.22-.32-.45-.46-.68s-.33-.54-.48-.83c-.08-.13-.15-.27-.22-.41l-.11-.24c-.06-.12-.11-.24-.16-.36s-.09-.19-.12-.28a21.06,21.06,0,0,1-1.16-3.79c-1.24-5.93-1.91-13.28.33-18.23s11-14,19.5-20q2.92-2.07,5.48-3.58l.65-.38.7-.4c.65-.37,1.29-.71,1.9-1l.69-.35.9-.43c.51-.25,1-.47,1.49-.67,1-.42,1.9-.77,2.75-1l.65-.2.17,0c.14,0,.29-.09.44-.12s.45-.12.66-.17.54-.12.79-.17a11.51,11.51,0,0,1,1.3-.18l.23,0a6.11,6.11,0,0,1,3,.33C348,240.85,346.62,253.41,345.47,260Z" style="fill:#511AFF;opacity:0.85"></path></g></g><g id="freepik--glasses-1--inject-88"><g id="freepik--glasses--inject-88"><path d="M154.13,152.61a3.46,3.46,0,0,1-1.75-.47L90.12,116.19a14.57,14.57,0,0,0-21.85,12.62v1.53a3.5,3.5,0,0,1-7,0v-1.53a21.57,21.57,0,0,1,32.35-18.68l62.26,36a3.5,3.5,0,0,1-1.75,6.53Z" style="fill:#37474f"></path><path d="M261.81,90.43a3.45,3.45,0,0,1-1.74-.47L197.81,54A14.58,14.58,0,0,0,176,66.64v1.53a3.5,3.5,0,1,1-7,0V66.64A21.58,21.58,0,0,1,201.31,48L263.57,83.9a3.5,3.5,0,0,1-1.76,6.53Z" style="fill:#37474f"></path><path d="M267.43,78.74l-4.05-2.34h0c-2.91-1.76-20.81,8.37-28,13.68a62.39,62.39,0,0,0-23.85,38.37v0a6.37,6.37,0,0,0-6.73.19c-3.85,2.22-6.73,7.58-6.73,7.58h0a20.2,20.2,0,0,0-4.21-8.65l1-.23-4.15-2.4h0l0,0h0c-4.07-2.33-9.56-2.34-16.43.52-7.35,3.06-25.92,14-28.19,19-3.78,8.26-1.93,26.14,0,35.18,1.65,7.74,5.11,13.3,9.81,16.05h0l4.34,2.51-.21-.89c4.17.92,9,0,14.26-3,13.8-8,25-29.35,25-47.75,0,0,1.75-8.25,5.6-10.47s5.6,4,5.6,4c0,10,3.32,17.12,8.6,20.19h0l4.18,2.41.2-.87c3.56.55,7.65-.33,12-2.84,13.8-8,24.8-27.42,28.19-47.22,1.59-9.28,3.12-24.51,1.49-31.76ZM174.2,186.68c-10.66,6.15-19.3-.38-19.3-14.6s8.64-30.72,19.3-36.88,19.3.38,19.3,14.6S184.86,180.52,174.2,186.68Zm61.18-35.32c-10.66,6.15-19.31-.38-19.31-14.59s8.65-30.73,19.31-36.88,19.3.37,19.3,14.59S246,145.2,235.38,151.36Z" style="fill:#511AFF"></path><path d="M267.43,78.74c-3-1.7-20.82,8.4-28,13.7a58.56,58.56,0,0,0-8.23,7.36l-4.06-2.34a59.19,59.19,0,0,1,8.23-7.37c7.19-5.31,25.09-15.43,28-13.68h0Z" style="fill:#fff;opacity:0.4"></path><path d="M194.82,127.31h0c-4.08-2.4-9.61-2.44-16.54.45-7.35,3.06-25.92,14-28.19,19L146,144.42c2.27-5,20.84-15.95,28.19-19,6.87-2.86,12.36-2.84,16.43-.51h0l0,0s0,0,0,0Z" style="fill:#fff;opacity:0.4"></path><path d="M215.1,130.5a6.52,6.52,0,0,0-6.25.46,11.58,11.58,0,0,0-2.13,1.61l-4.07-2.35a12.11,12.11,0,0,1,2.14-1.61,6.37,6.37,0,0,1,6.73-.19v0Z" style="fill:#fff;opacity:0.4"></path><path d="M206.72,132.57a25.49,25.49,0,0,0-4.59,6h0a24,24,0,0,0-2-5.46,21.48,21.48,0,0,1,2.55-2.86Z" style="opacity:0.05"></path><path d="M159.74,197.93l-3.93-2.27h0c-4.7-2.75-8.16-8.31-9.81-16.05-1.93-9-3.78-26.91,0-35.18l4.06,2.34c-3.78,8.27-1.93,26.15,0,35.19C151.7,189.61,155.1,195.14,159.74,197.93Z" style="opacity:0.15"></path><path d="M222.75,162.41,219,160.24c-5.28-3.07-8.6-10.14-8.6-20.19a11.23,11.23,0,0,0-.82-2c3.35-1.12,4.88,4.33,4.88,4.33C214.45,152.25,217.65,159.25,222.75,162.41Z" style="opacity:0.15"></path><path d="M231.21,99.8a63.18,63.18,0,0,0-15.61,31h0l-.06,0-.16-.09-.26-.14-3.57-2.07a63.32,63.32,0,0,1,15.62-31Z" style="opacity:0.05"></path><path d="M267.63,78.88c-2.27-2.35-20.84,8.12-28.19,13.55a62.39,62.39,0,0,0-23.85,38.37v0a6.37,6.37,0,0,0-6.73.19c-3.85,2.22-6.73,7.58-6.73,7.58h0a23.93,23.93,0,0,0-2-5.45c-3.86-7.3-11.2-9.76-21.84-5.33-7.35,3.06-25.92,14-28.19,19-3.78,8.27-1.93,26.15,0,35.18,3.38,15.89,14.39,22.63,28.19,14.66s25-29.34,25-47.74c0,0,1.75-8.26,5.6-10.48s5.6,4,5.6,4c0,18.4,11.19,26.86,25,18.89s24.81-27.42,28.19-47.21C269.55,102.81,271.41,82.79,267.63,78.88ZM178.26,189c-10.66,6.15-19.3-.38-19.3-14.59s8.64-30.73,19.3-36.88,19.3.38,19.3,14.59S188.92,182.87,178.26,189Zm61.18-35.32c-10.66,6.16-19.31-.38-19.31-14.59s8.65-30.73,19.31-36.88,19.3.38,19.3,14.59S250.1,147.55,239.44,153.7Z" style="fill:#511AFF"></path><path d="M151.79,150.46a5.62,5.62,0,0,1,2.34-4.48c1.29-.74,2.34.05,2.34,1.77a5.62,5.62,0,0,1-2.34,4.48C152.84,153,151.79,152.19,151.79,150.46Z" style="fill:#37474f"></path><path d="M264.16,85.58c0-1.72-1.05-2.52-2.34-1.77a5.62,5.62,0,0,0-2.34,4.48c0,1.72,1,2.51,2.34,1.77A5.62,5.62,0,0,0,264.16,85.58Z" style="fill:#37474f"></path><path d="M197.56,152.14c0,14.22-8.64,30.73-19.3,36.88-5.81,3.36-11,2.95-14.56-.43,3,.88,6.63.32,10.5-1.91,10.66-6.16,19.3-22.67,19.3-36.88,0-6.47-1.79-11.35-4.75-14.17C194.05,137.15,197.56,143.09,197.56,152.14Z" style="fill:#511AFF;opacity:0.4"></path><path d="M258.74,116.83c0,14.21-8.64,30.72-19.3,36.88-5.8,3.34-11,2.94-14.54-.42,3,.87,6.61.3,10.47-1.93,10.66-6.15,19.31-22.67,19.31-36.88,0-6.47-1.8-11.36-4.76-14.17C255.23,101.83,258.74,107.76,258.74,116.83Z" style="fill:#511AFF;opacity:0.4"></path><g style="opacity:0.30000000000000004"><path d="M197.56,152.14c0,14.22-8.64,30.73-19.3,36.88-5.81,3.36-11,2.95-14.56-.43,3,.88,6.63.32,10.5-1.91,10.66-6.16,19.3-22.67,19.3-36.88,0-6.47-1.79-11.35-4.75-14.17C194.05,137.15,197.56,143.09,197.56,152.14Z" style="opacity:0.4"></path></g><g style="opacity:0.30000000000000004"><path d="M258.74,116.83c0,14.21-8.64,30.72-19.3,36.88-5.8,3.34-11,2.94-14.54-.42,3,.87,6.61.3,10.47-1.93,10.66-6.15,19.31-22.67,19.31-36.88,0-6.47-1.8-11.36-4.76-14.17C255.23,101.83,258.74,107.76,258.74,116.83Z" style="opacity:0.4"></path></g><ellipse cx="178.26" cy="163.29" rx="29.63" ry="16.76" transform="translate(-41.78 263.38) rotate(-66.95)" style="fill:#511AFF;opacity:0.2"></ellipse><ellipse cx="239.44" cy="127.97" rx="29.63" ry="16.76" transform="matrix(0.39, -0.92, 0.92, 0.39, 27.94, 298.18)" style="fill:#511AFF;opacity:0.2"></ellipse></g></g></svg>