<svg width="221" height="75" viewBox="0 0 221 75" fill="none" xmlns="http://www.w3.org/2000/svg">
<path d="M70.9336 42.4727V41.8574C70.9336 39.5332 71.2656 37.3945 71.9297 35.4414C72.5938 33.4688 73.5605 31.7598 74.8301 30.3145C76.0996 28.8691 77.6621 27.7461 79.5176 26.9453C81.373 26.125 83.502 25.7148 85.9043 25.7148C88.3066 25.7148 90.4453 26.125 92.3203 26.9453C94.1953 27.7461 95.7676 28.8691 97.0371 30.3145C98.3262 31.7598 99.3027 33.4688 99.9668 35.4414C100.631 37.3945 100.963 39.5332 100.963 41.8574V42.4727C100.963 44.7773 100.631 46.916 99.9668 48.8887C99.3027 50.8418 98.3262 52.5508 97.0371 54.0156C95.7676 55.4609 94.2051 56.584 92.3496 57.3848C90.4941 58.1855 88.3652 58.5859 85.9629 58.5859C83.5605 58.5859 81.4219 58.1855 79.5469 57.3848C77.6914 56.584 76.1191 55.4609 74.8301 54.0156C73.5605 52.5508 72.5938 50.8418 71.9297 48.8887C71.2656 46.916 70.9336 44.7773 70.9336 42.4727ZM79.3711 41.8574V42.4727C79.3711 43.8008 79.4883 45.041 79.7227 46.1934C79.957 47.3457 80.3281 48.3613 80.8359 49.2402C81.3633 50.0996 82.0469 50.7734 82.8867 51.2617C83.7266 51.75 84.752 51.9941 85.9629 51.9941C87.1348 51.9941 88.1406 51.75 88.9805 51.2617C89.8203 50.7734 90.4941 50.0996 91.002 49.2402C91.5098 48.3613 91.8809 47.3457 92.1152 46.1934C92.3691 45.041 92.4961 43.8008 92.4961 42.4727V41.8574C92.4961 40.5684 92.3691 39.3574 92.1152 38.2246C91.8809 37.0723 91.5 36.0566 90.9727 35.1777C90.4648 34.2793 89.791 33.5762 88.9512 33.0684C88.1113 32.5605 87.0957 32.3066 85.9043 32.3066C84.7129 32.3066 83.6973 32.5605 82.8574 33.0684C82.0371 33.5762 81.3633 34.2793 80.8359 35.1777C80.3281 36.0566 79.957 37.0723 79.7227 38.2246C79.4883 39.3574 79.3711 40.5684 79.3711 41.8574ZM115.055 13V58H106.588V13H115.055ZM130.934 13V58H122.467V13H130.934ZM156.656 50.4121V26.3008H165.094V58H157.154L156.656 50.4121ZM157.594 43.9082L160.084 43.8496C160.084 45.959 159.84 47.9219 159.352 49.7383C158.863 51.5352 158.131 53.0977 157.154 54.4258C156.178 55.7344 154.947 56.7598 153.463 57.502C151.979 58.2246 150.23 58.5859 148.219 58.5859C146.676 58.5859 145.25 58.3711 143.941 57.9414C142.652 57.4922 141.539 56.7988 140.602 55.8613C139.684 54.9043 138.961 53.6836 138.434 52.1992C137.926 50.6953 137.672 48.8887 137.672 46.7793V26.3008H146.109V46.8379C146.109 47.7754 146.217 48.5664 146.432 49.2109C146.666 49.8555 146.988 50.3828 147.398 50.793C147.809 51.2031 148.287 51.4961 148.834 51.6719C149.4 51.8477 150.025 51.9355 150.709 51.9355C152.447 51.9355 153.814 51.584 154.811 50.8809C155.826 50.1777 156.539 49.2207 156.949 48.0098C157.379 46.7793 157.594 45.4121 157.594 43.9082ZM187.066 26.3008V32.2773H168.609V26.3008H187.066ZM173.18 18.4785H181.617V48.4492C181.617 49.3672 181.734 50.0703 181.969 50.5586C182.223 51.0469 182.594 51.3887 183.082 51.584C183.57 51.7598 184.186 51.8477 184.928 51.8477C185.455 51.8477 185.924 51.8281 186.334 51.7891C186.764 51.7305 187.125 51.6719 187.418 51.6133L187.447 57.8242C186.725 58.0586 185.943 58.2441 185.104 58.3809C184.264 58.5176 183.336 58.5859 182.32 58.5859C180.465 58.5859 178.844 58.2832 177.457 57.6777C176.09 57.0527 175.035 56.0566 174.293 54.6895C173.551 53.3223 173.18 51.5254 173.18 49.2988V18.4785ZM206.461 58.5859C204 58.5859 201.793 58.1953 199.84 57.4141C197.887 56.6133 196.227 55.5098 194.859 54.1035C193.512 52.6973 192.477 51.0664 191.754 49.2109C191.031 47.3359 190.67 45.3438 190.67 43.2344V42.0625C190.67 39.6602 191.012 37.4629 191.695 35.4707C192.379 33.4785 193.355 31.75 194.625 30.2852C195.914 28.8203 197.477 27.6973 199.312 26.916C201.148 26.1152 203.219 25.7148 205.523 25.7148C207.77 25.7148 209.762 26.0859 211.5 26.8281C213.238 27.5703 214.693 28.625 215.865 29.9922C217.057 31.3594 217.955 33 218.561 34.9141C219.166 36.8086 219.469 38.918 219.469 41.2422V44.7578H194.273V39.1328H211.178V38.4883C211.178 37.3164 210.963 36.2715 210.533 35.3535C210.123 34.416 209.498 33.6738 208.658 33.127C207.818 32.5801 206.744 32.3066 205.436 32.3066C204.322 32.3066 203.365 32.5508 202.564 33.0391C201.764 33.5273 201.109 34.2109 200.602 35.0898C200.113 35.9688 199.742 37.0039 199.488 38.1953C199.254 39.3672 199.137 40.6562 199.137 42.0625V43.2344C199.137 44.5039 199.312 45.6758 199.664 46.75C200.035 47.8242 200.553 48.752 201.217 49.5332C201.9 50.3145 202.721 50.9199 203.678 51.3496C204.654 51.7793 205.758 51.9941 206.988 51.9941C208.512 51.9941 209.928 51.7012 211.236 51.1152C212.564 50.5098 213.707 49.6016 214.664 48.3906L218.766 52.8438C218.102 53.8008 217.193 54.7188 216.041 55.5977C214.908 56.4766 213.541 57.1992 211.939 57.7656C210.338 58.3125 208.512 58.5859 206.461 58.5859Z" fill="white"/>
<circle cx="32.5" cy="34.5" r="32.5" fill="white"/>
<path d="M39.0156 44.8379C39.0156 44.0762 38.8984 43.3926 38.6641 42.7871C38.4492 42.1621 38.0391 41.5957 37.4336 41.0879C36.8281 40.5605 35.9785 40.043 34.8848 39.5352C33.791 39.0273 32.375 38.5 30.6367 37.9531C28.7031 37.3281 26.8672 36.625 25.1289 35.8438C23.4102 35.0625 21.8867 34.1543 20.5586 33.1191C19.25 32.0645 18.2148 30.8438 17.4531 29.457C16.7109 28.0703 16.3398 26.459 16.3398 24.623C16.3398 22.8457 16.7305 21.2344 17.5117 19.7891C18.293 18.3242 19.3867 17.0742 20.793 16.0391C22.1992 14.9844 23.8594 14.1738 25.7734 13.6074C27.707 13.041 29.8262 12.7578 32.1309 12.7578C35.2754 12.7578 38.0195 13.3242 40.3633 14.457C42.707 15.5898 44.5234 17.1426 45.8125 19.1152C47.1211 21.0879 47.7754 23.3437 47.7754 25.8828H39.0449C39.0449 24.6328 38.7812 23.5391 38.2539 22.6016C37.7461 21.6445 36.9648 20.8926 35.9102 20.3457C34.875 19.7988 33.5664 19.5254 31.9844 19.5254C30.4609 19.5254 29.1914 19.7598 28.1758 20.2285C27.1602 20.6777 26.3984 21.293 25.8906 22.0742C25.3828 22.8359 25.1289 23.6953 25.1289 24.6523C25.1289 25.375 25.3047 26.0293 25.6562 26.6152C26.0273 27.2012 26.5742 27.748 27.2969 28.2559C28.0195 28.7637 28.9082 29.2422 29.9629 29.6914C31.0176 30.1406 32.2383 30.5801 33.625 31.0098C35.9492 31.7129 37.9902 32.5039 39.748 33.3828C41.5254 34.2617 43.0098 35.248 44.2012 36.3418C45.3926 37.4355 46.291 38.6758 46.8965 40.0625C47.502 41.4492 47.8047 43.0215 47.8047 44.7793C47.8047 46.6348 47.4434 48.2949 46.7207 49.7598C45.998 51.2246 44.9531 52.4648 43.5859 53.4805C42.2188 54.4961 40.5879 55.2676 38.6934 55.7949C36.7988 56.3223 34.6797 56.5859 32.3359 56.5859C30.2266 56.5859 28.1465 56.3125 26.0957 55.7656C24.0449 55.1992 22.1797 54.3496 20.5 53.2168C18.8398 52.084 17.5117 50.6387 16.5156 48.8809C15.5195 47.123 15.0215 45.043 15.0215 42.6406H23.8398C23.8398 43.9688 24.0449 45.0918 24.4551 46.0098C24.8652 46.9277 25.4414 47.6699 26.1836 48.2363C26.9453 48.8027 27.8438 49.2129 28.8789 49.4668C29.9336 49.7207 31.0859 49.8477 32.3359 49.8477C33.8594 49.8477 35.1094 49.6328 36.0859 49.2031C37.082 48.7734 37.8145 48.1777 38.2832 47.416C38.7715 46.6543 39.0156 45.7949 39.0156 44.8379Z" fill="#784DFF"/>
</svg>
